<?xml version="1.0" encoding="UTF-8"?>
<!DOCTYPE svg PUBLIC "-//W3C//DTD SVG 1.1//EN" "http://www.w3.org/Graphics/SVG/1.1/DTD/svg11.dtd">
<!-- Creator: CorelDRAW 2018 (64 Bit) -->
<svg xmlns="http://www.w3.org/2000/svg" xml:space="preserve" width="300px" height="100px" version="1.1" style="shape-rendering:geometricPrecision; text-rendering:geometricPrecision; image-rendering:optimizeQuality; fill-rule:evenodd; clip-rule:evenodd"
viewBox="0 0 300 100"
 xmlns:xlink="http://www.w3.org/1999/xlink">
 <defs>
  <style type="text/css">
   <![CDATA[
    .fil0 {fill:url(#id0);fill-rule:nonzero}
   ]]>
  </style>
  <linearGradient id="id0" gradientUnits="userSpaceOnUse" x1="128.83" y1="-5.72" x2="171.17" y2="105.72">
   <stop offset="0" style="stop-opacity:1; stop-color:#FF01FF"/>
   <stop offset="1" style="stop-opacity:1; stop-color:#BC51FA"/>
  </linearGradient>
 </defs>
 <g id="Capa_x0020_1">
  <metadata id="CorelCorpID_0Corel-Layer"/>
  <path class="fil0" d="M29.59 85.17l-0.68 0.46c-0.27,0.17 -0.57,0.26 -0.87,0.26 -0.71,0 -1.39,-0.46 -2.05,-1.4 -0.66,-0.92 -0.99,-1.88 -0.99,-2.86 0,-1.77 0.17,-3.02 0.53,-3.77 0.35,-0.75 0.55,-1.31 0.61,-1.67 0,-0.03 0.3,-0.72 0.9,-2.09 0.61,-1.37 1.18,-2.4 1.72,-3.1 0.53,-0.7 0.97,-1.36 1.33,-1.98l0.18 -0.35c0.43,-0.66 0.83,-1.14 1.22,-1.38 0,-0.17 0.55,-0.76 1.63,-1.76 1.08,-0.99 2.1,-1.84 3.05,-2.54l0.43 -0.59c0.68,-0.44 1.07,-0.64 1.18,-0.64l2.45 -0.68c0.22,-0.23 0.76,-0.66 1.64,-1.31l0.33 0 1.14 -0.33c0.62,-0.28 1.58,-0.54 2.89,-0.79 1.3,-0.23 2.03,-0.52 2.22,-0.83 0.17,-0.33 0.32,-0.64 0.45,-0.91 0.11,-0.29 0.41,-0.88 0.9,-1.77 0.12,-0.48 0.22,-0.86 0.31,-1.14 0.08,-0.29 0.17,-0.46 0.27,-0.5 0.1,-0.06 0.26,-0.33 0.48,-0.84 0.23,-0.49 0.46,-0.9 0.67,-1.24 0.06,0 0.09,-0.02 0.09,-0.08l-0.25 -0.72c0.22,-0.68 0.45,-1.08 0.69,-1.24 0.25,-0.16 0.36,-0.26 0.36,-0.32l-0.3 -0.76 0.72 -1.55c0,-0.12 -0.06,-0.18 -0.17,-0.18 -1.48,1.04 -2.36,1.56 -2.61,1.56 -0.14,0.2 -0.44,0.54 -0.92,1.02 -0.49,0.17 -0.8,0.46 -0.98,0.88l-0.33 0.08 -0.24 0.44c0,0.05 -0.1,0.11 -0.31,0.2 -0.2,0.09 -0.59,0.32 -1.18,0.67l-0.5 -0.08c-0.12,0 -0.24,0.29 -0.42,0.85 -0.47,0.56 -0.93,0.9 -1.37,1.03 -0.43,0.13 -0.7,0.28 -0.82,0.45l-0.33 0.42 -0.41 -0.09c-0.59,0 -0.9,0.23 -0.9,0.68 0,0.26 -0.16,0.55 -0.5,0.89 -0.22,0 -0.5,0.07 -0.84,0.25l-0.63 0c-0.27,0.61 -0.78,1 -1.51,1.13l-1.22 0.85 -0.71 0.26c-0.34,0.16 -0.68,0.38 -1.01,0.61 -0.34,0.24 -0.9,0.39 -1.73,0.44 -0.38,-0.23 -0.99,-0.44 -1.81,-0.64 -0.81,-0.22 -1.38,-1.59 -1.73,-4.12l-0.08 0c-0.22,0 -0.46,0.08 -0.74,0.26 -0.26,0.15 -0.46,0.24 -0.56,0.24 -0.68,0 -1.02,-0.27 -1.02,-0.83 0,-1.27 0.47,-2.11 1.44,-2.5l1.05 -1.3 2.71 -2.65c1.88,-1.89 3.15,-3.1 3.8,-3.63 0.65,-0.53 1.35,-1.05 2.1,-1.56l2.16 -1.44c0.73,-0.47 1.18,-0.73 1.35,-0.77 0.17,-0.05 0.35,-0.13 0.53,-0.28 0.18,-0.14 0.7,-0.36 1.55,-0.63l0.76 -0.35c1.57,-0.53 2.59,-0.79 3.04,-0.79l0.59 0.09c0.3,0 0.6,-0.12 0.89,-0.35 0.39,0 0.99,-0.3 1.81,-0.92l1.51 -0.42c0.44,-0.14 0.78,-0.21 1.07,-0.21l0.79 0c0.59,0 0.98,0.46 1.17,1.38 0.19,0.92 0.34,1.4 0.49,1.4 0.06,0 0.21,-0.22 0.5,-0.64l0.59 -0.43c0.42,-0.27 0.69,-0.42 0.79,-0.42 0.68,0 1.11,0.29 1.27,0.85l0 0.08 0.17 0.21c0.26,1.35 0.38,2.17 0.38,2.49 0,1.35 -0.29,2.41 -0.87,3.17 -0.57,0.75 -0.92,1.28 -1.02,1.6 -0.56,2.27 -1.12,3.99 -1.7,5.14 -0.13,0.31 -0.47,1.12 -1.01,2.44l-0.41 0.42c-0.12,0.06 -0.18,0.15 -0.18,0.26l0.09 0.59c-0.47,0.76 -0.72,1.37 -0.72,1.82 0,0.25 -0.22,0.77 -0.68,1.55 0.06,0.06 0.31,0.22 0.75,0.45 0.43,0.24 0.92,0.69 1.47,1.35 0.55,0.66 0.82,1.15 0.82,1.5 0,0.08 -0.14,0.63 -0.46,1.64 -1.01,0.76 -1.87,1.14 -2.58,1.14 -0.27,0 -0.69,-0.19 -1.22,-0.55l-0.26 0.09 0 -0.18c-0.36,-0.08 -0.65,-0.18 -0.86,-0.31 -0.22,-0.12 -0.42,-0.19 -0.62,-0.19 -0.22,0 -0.33,0.11 -0.33,0.34 0,0.1 0.03,0.22 0.08,0.34 -0.17,0.14 -0.4,0.34 -0.67,0.63 0,0.08 -0.2,0.5 -0.59,1.24 -0.41,0.75 -0.75,1.25 -1.07,1.49 -0.62,0.03 -1.04,0.51 -1.27,1.4 -0.21,0.89 -0.49,1.47 -0.79,1.73l-0.43 -0.17c-0.95,1.91 -1.91,3.29 -2.86,4.14 -0.59,0.13 -0.9,0.25 -0.91,0.3 -0.02,0.08 -0.04,0.26 -0.09,0.55 -0.04,0.3 -0.37,0.76 -1.01,1.4 -0.63,0.63 -1,0.95 -1.12,0.95l-0.42 0.08 -0.25 0.26c0.02,0.56 -0.71,1.46 -2.24,2.7 -0.82,0.44 -1.25,0.76 -1.31,0.92 -0.21,0.54 -1.05,1.16 -2.49,1.9l-0.79 0.72c-0.37,0.33 -0.73,0.57 -1.09,0.72l-1.07 0.37zm14.53 -35.14l0.5 -0.71c0.17,-0.23 0.46,-0.4 0.86,-0.52 0.41,-0.1 0.74,-0.34 1,-0.7 0.68,-0.97 1.47,-1.67 2.4,-2.12l0.42 -0.29c0.42,-0.82 0.81,-1.26 1.14,-1.33 0.34,-0.08 0.63,-0.32 0.89,-0.77 0.24,-0.43 0.38,-0.79 0.38,-1.06 0,-0.12 -0.09,-0.18 -0.26,-0.18 -0.39,0 -0.74,0.12 -1.03,0.34 -0.3,0.23 -0.5,0.34 -0.62,0.34l-0.83 -0.08c-0.52,0.28 -1.21,0.61 -2.12,1l-0.76 0.64c-0.33,0.23 -0.63,0.37 -0.91,0.43 -0.26,0.06 -0.46,0.23 -0.6,0.52 -0.15,0.3 -0.33,0.44 -0.55,0.44l-0.34 0.18c-0.1,0.11 -0.44,0.17 -0.97,0.17 -0.29,0.16 -0.57,0.4 -0.86,0.7 -0.3,0.32 -0.48,0.48 -0.54,0.48 -0.64,0.69 -1.19,1.14 -1.65,1.29 -0.48,0.18 -0.78,0.42 -0.91,0.72 -0.55,0.15 -0.99,0.47 -1.35,0.95 -0.38,0.49 -0.71,0.84 -1,1.03 -0.3,0.17 -0.56,0.4 -0.77,0.69l-0.42 0.33c-0.17,0.11 -0.4,0.49 -0.71,1.12 -0.28,0.64 -0.44,1.08 -0.44,1.33 0,0.17 0.1,0.26 0.3,0.26 0.27,0 0.81,-0.21 1.58,-0.62 0.77,-0.41 1.27,-0.72 1.5,-0.94 0.22,-0.23 0.38,-0.35 0.46,-0.35l1.6 0.09c0.17,-0.36 0.46,-0.6 0.86,-0.72 0.42,-0.11 0.74,-0.34 0.95,-0.72 0.24,-0.36 0.87,-0.75 1.91,-1.18l0.46 -0.76 0.43 0zm0.67 13.46l-1.26 0.17c-0.3,-0.23 -0.55,-0.34 -0.71,-0.34 -0.11,0 -0.2,0.08 -0.26,0.26 -0.33,0.44 -1.08,0.82 -2.23,1.13 -1.15,0.31 -1.94,0.62 -2.35,0.95 -0.4,0.32 -0.74,0.49 -1.03,0.52 -0.28,0.03 -0.42,0.09 -0.42,0.17 -0.29,0.24 -0.49,0.42 -0.63,0.6 -0.28,0.11 -0.56,0.28 -0.85,0.53 -0.28,0.23 -0.58,0.39 -0.88,0.43 -0.5,1.11 -0.88,1.66 -1.1,1.66 -0.05,0 -0.2,-0.03 -0.43,-0.09l-0.07 0c-0.37,0.73 -0.65,1.15 -0.85,1.27 -0.2,0.11 -0.36,0.27 -0.5,0.47 -0.15,0.22 -0.42,0.45 -0.82,0.71 -0.42,0.24 -0.69,0.67 -0.82,1.28 -0.15,0.6 -0.32,1.01 -0.54,1.22 -0.21,0.22 -0.34,0.68 -0.4,1.41l-0.24 0.59c-0.09,0.17 -0.22,0.66 -0.36,1.46 -0.16,0.8 -0.23,1.22 -0.23,1.25 0,0.39 0.15,0.73 0.5,1.05 0.11,-0.14 0.34,-0.24 0.71,-0.3l2.49 -1.01c0.08,-0.06 0.4,-0.32 0.93,-0.78 0.53,-0.46 1.01,-0.76 1.41,-0.9 0.41,-0.15 0.78,-0.39 1.13,-0.77 0.21,-0.33 0.49,-0.62 0.82,-0.83 0.31,-0.23 0.5,-0.51 0.56,-0.85 0.65,-0.56 1.24,-1.1 1.77,-1.59 0.53,-0.49 0.88,-0.89 1.03,-1.22 0.16,-0.32 0.41,-0.59 0.74,-0.82l0.17 -0.55c0.06,-0.03 0.18,-0.06 0.36,-0.1 0.19,-0.04 0.49,-0.5 0.91,-1.38l1.14 -1.89c0.67,-0.67 1.22,-1.54 1.64,-2.57l0.59 -0.51c0.11,-0.05 0.17,-0.18 0.17,-0.39l-0.09 -0.24zm36.3 -39.56l-0.26 -1.64 0 -0.26c0,-1.31 0.45,-2.05 1.35,-2.19 0.19,-0.03 0.79,-0.22 1.77,-0.55 0.51,0.12 1.04,0.56 1.59,1.33 0.54,0.77 0.82,1.45 0.82,2.04 0,0.06 -0.05,0.19 -0.13,0.37 -0.09,0.21 -0.15,0.58 -0.17,1.13 -0.02,0.54 -0.31,1.02 -0.83,1.44 -0.51,0.4 -1.06,0.6 -1.65,0.6 -0.4,0 -0.89,-0.27 -1.51,-0.82 -0.61,-0.55 -0.92,-1.04 -0.98,-1.45zm-18.23 21.1l0.68 -0.59 0.26 0c0.2,0 0.49,-0.21 0.89,-0.63l0.42 -0.17c0.57,-0.84 1.06,-1.33 1.5,-1.47l0.67 -0.51c0.12,-0.11 0.28,-0.21 0.49,-0.3 0.22,-0.08 0.55,-0.36 1.02,-0.82 0.46,-0.46 0.85,-0.69 1.13,-0.69 0.28,0 0.52,0.03 0.69,0.09 0.16,-0.35 0.5,-0.68 1.01,-1 0.51,-0.33 0.93,-0.72 1.23,-1.16l0.56 -0.25c0.45,-0.23 0.85,-0.52 1.21,-0.86 0.35,-0.36 0.81,-0.54 1.39,-0.54 0.82,0 1.67,0.42 2.56,1.24 0.88,0.84 1.32,1.63 1.32,2.39l-0.72 3.3c-0.47,2.42 -1,3.69 -1.59,3.8l-0.18 0.88c-0.39,0.29 -0.59,0.52 -0.59,0.68l0.26 1.02c0,0.13 -0.16,0.34 -0.46,0.63 -0.06,0 -0.08,0.09 -0.08,0.25l0 1.72c0,0.32 -0.21,0.58 -0.6,0.77 0.06,0.05 0.15,0.11 0.25,0.17 0.17,-0.17 0.55,-0.26 1.14,-0.26l0.67 0.09 0.92 -0.92c0.19,-0.06 0.47,-0.19 0.81,-0.41 0.35,-0.21 0.94,-0.49 1.77,-0.82l5.47 -4.23c0.75,-0.76 1.33,-1.14 1.72,-1.14 0.41,0 0.61,0.27 0.61,0.81 0,0.62 -0.11,1.12 -0.35,1.54 -0.23,0.4 -0.47,0.89 -0.65,1.47 -0.21,0.57 -0.43,0.98 -0.69,1.19 -0.28,0.23 -0.49,0.48 -0.67,0.75 -0.15,0.26 -0.62,0.65 -1.36,1.15 -0.74,0.51 -1.37,1.02 -1.89,1.54 -0.52,0.52 -0.95,0.89 -1.3,1.13l-1.8 1.29 -0.25 0.43c-0.06,0.06 -0.32,0.18 -0.78,0.36 -0.46,0.18 -0.88,0.41 -1.24,0.69l-0.76 0.42c-0.16,0.12 -0.45,0.19 -0.82,0.22 -0.38,0.03 -0.71,0.19 -1,0.49 -0.27,0.29 -0.5,0.43 -0.66,0.43l-0.63 -0.09 -0.85 0.26c-0.48,0 -1.05,-0.29 -1.74,-0.86 -0.7,-0.58 -1.04,-1.2 -1.04,-1.84l0 -0.25 0.09 -0.59c0,-0.11 -0.09,-0.4 -0.26,-0.86 -0.16,-0.48 -0.25,-0.74 -0.25,-0.8l0.09 -0.59 -0.09 -0.24c0,-0.76 0.06,-1.24 0.17,-1.44 0.11,-0.2 0.19,-0.48 0.25,-0.82 0.06,-0.36 0.11,-0.65 0.17,-0.86l0.2 -1.07c0.12,-0.33 0.26,-0.56 0.44,-0.66 0.05,-0.23 0.15,-0.61 0.33,-1.15l0.17 -0.75 0.42 -0.59c0.23,-0.23 0.36,-0.54 0.4,-0.91 0.04,-0.39 0.19,-0.79 0.45,-1.21 0.24,-0.42 0.37,-0.68 0.37,-0.76 0,-0.33 -0.16,-0.51 -0.5,-0.51 -0.12,0 -0.46,0.23 -1.05,0.68l-0.77 -0.26c-0.05,0 -0.21,0.15 -0.46,0.43 0,0.12 -0.13,0.19 -0.39,0.25 -0.26,0.05 -0.49,0.27 -0.72,0.63l-0.33 0.09 -0.56 -0.25 -0.16 0c-0.29,0 -0.46,0.31 -0.52,0.92 -0.3,0.46 -0.7,0.75 -1.22,0.9l-0.92 0.24c-0.32,0.12 -0.53,0.38 -0.68,0.76 -0.14,0.41 -0.43,0.77 -0.85,1.08 -0.41,0.34 -0.7,0.49 -0.85,0.49 -0.79,0 -1.18,-0.43 -1.18,-1.31l0.35 -1.97 -0.09 -0.26zm20.43 25.92l0.42 -0.94 0.26 -1.05c0,-0.12 0.13,-0.27 0.4,-0.5 0.26,-0.23 0.4,-0.42 0.39,-0.59 0.68,-2.62 1.37,-4.41 2.07,-5.36l1.01 -2.53c0.12,-0.56 0.38,-1.01 0.79,-1.36 0.41,-0.33 0.61,-0.63 0.61,-0.87 0,-0.18 -0.29,-0.42 -0.87,-0.75 -0.57,-0.32 -0.86,-0.62 -0.86,-0.91 0,-0.27 0.92,-0.82 2.78,-1.64 0,-0.79 0.43,-1.61 1.27,-2.49 0.2,-0.16 0.3,-0.36 0.3,-0.59 0,-0.68 0.13,-1.23 0.42,-1.64l0.33 -0.97c0.11,-0.34 0.34,-0.72 0.7,-1.12 0.35,-0.4 0.52,-0.81 0.52,-1.21l0 -0.33c-0.36,-0.03 -0.88,0.44 -1.55,1.44 -0.71,0 -1.29,0.52 -1.73,1.55 -0.23,0.59 -0.75,0.97 -1.57,1.14 -0.36,0.68 -0.97,1.14 -1.82,1.4 -0.6,-0.38 -0.9,-0.68 -0.9,-0.94l0.37 -2.61c0,-0.59 1.44,-2.07 4.31,-4.43 0.17,0 0.72,-0.53 1.64,-1.6l2.33 -2.62c1.25,-1.26 2.22,-2.19 2.86,-2.78 1.21,-1.91 1.82,-3.18 1.82,-3.8 0.56,-0.5 1.05,-1.55 1.45,-3.14 0.41,-1.59 0.8,-2.75 1.14,-3.47 0.35,-0.7 0.56,-1.23 0.61,-1.58 1.13,-3.4 1.95,-5.53 2.49,-6.41l0.43 -1.39 0.63 -0.51c0.04,-0.14 0.1,-0.57 0.16,-1.31 0.32,-0.1 0.63,-0.72 0.98,-1.85 0.33,-1.13 0.66,-1.89 1.01,-2.32 0.33,-0.42 0.56,-0.86 0.67,-1.33 0.12,-0.46 0.46,-0.92 1.04,-1.39 0.58,-0.46 1.15,-0.69 1.74,-0.69 0.2,0 0.53,0.28 0.99,0.86 0.47,0.58 0.75,1.24 0.85,1.99 0.09,0.75 0.18,1.25 0.24,1.51 0.05,0.27 0.08,0.63 0.08,1.08l0.07 1.22c0,0.23 -0.1,0.94 -0.33,2.15 -0.23,1.21 -0.39,2.07 -0.49,2.6 -0.1,0.52 -0.39,0.87 -0.86,1.03 -0.48,0.17 -0.72,0.34 -0.72,0.51 0,0.16 0.11,0.31 0.34,0.39 0.23,0.1 0.34,0.19 0.34,0.23 0,0.12 -0.16,0.49 -0.48,1.13 -0.33,0.63 -0.63,1.03 -0.91,1.2 0.16,0.34 0.25,0.54 0.25,0.6 0,0.13 -0.2,0.57 -0.61,1.32 -0.41,0.75 -0.75,1.24 -0.99,1.5 -0.26,0.26 -0.5,0.83 -0.76,1.72 -0.25,0.91 -0.9,1.66 -1.95,2.28 -0.39,0.4 -0.73,1.05 -1.02,1.94 -0.3,0.91 -0.73,1.47 -1.29,1.69l-0.55 0.8 0 0.18c0,0.41 -0.15,0.87 -0.42,1.38 -0.29,0.52 -0.56,1.11 -0.85,1.8 -0.27,0.69 -0.55,1.15 -0.79,1.37 -0.12,0.64 -0.32,1.23 -0.59,1.75 -0.29,0.52 -0.46,0.98 -0.52,1.37l-0.29 0.33c-0.56,0.09 -0.85,0.36 -0.85,0.81l0.18 0.93c0,0.02 -0.26,0.49 -0.77,1.39l-0.16 0.84c-0.14,0.71 -0.41,1.17 -0.8,1.42 -0.39,0.24 -0.65,0.76 -0.76,1.58l-0.18 1.01c0,0.05 0.03,0.14 0.09,0.26 0.06,0 0.23,-0.16 0.5,-0.46 0.41,0.13 0.62,0.2 0.68,0.2 0.17,0 0.33,-0.12 0.49,-0.36 0.16,-0.23 0.4,-0.42 0.73,-0.52l0.18 -0.09c0.14,-0.4 0.34,-0.6 0.63,-0.63 0.27,-0.03 0.52,-0.16 0.72,-0.4 0.19,-0.25 0.35,-0.36 0.46,-0.36 0.06,0 0.26,0.11 0.59,0.34l0.09 0 0.37 -0.17 -0.08 -0.68c0,-0.29 0.12,-0.46 0.38,-0.54 0.25,-0.09 0.44,-0.23 0.55,-0.42l1.56 -1.02c0.67,-0.28 1.18,-0.58 1.49,-0.91 0.33,-0.32 0.68,-0.55 1.05,-0.69 0.39,-0.15 0.68,-0.32 0.9,-0.54 0.21,-0.2 0.67,-0.34 1.41,-0.4 0.82,-0.69 1.45,-1.18 1.9,-1.42l0.33 -0.46c0.06,-0.06 0.17,-0.12 0.35,-0.18 0.15,-0.05 0.38,-0.23 0.64,-0.5 0.28,-0.29 0.52,-0.43 0.74,-0.43 0.56,0 0.85,0.29 0.85,0.85 0,0.92 -0.42,1.67 -1.27,2.23l-0.09 0.13c-0.14,1.12 -0.49,1.68 -1.06,1.68 -0.12,0 -0.3,0.25 -0.59,0.72 -0.32,-0.06 -0.49,-0.08 -0.55,-0.08 -0.23,0.34 -0.5,0.64 -0.85,0.93l-0.26 0c-0.44,0 -2.27,1.31 -5.45,3.92 -0.18,0.17 -0.32,0.29 -0.44,0.34l-0.8 -0.08c0,0.05 -0.16,0.33 -0.51,0.83 -0.41,0.15 -0.89,0.42 -1.39,0.81 -0.51,0.39 -0.88,0.65 -1.13,0.76 -0.23,0.12 -0.44,0.3 -0.64,0.56 -0.21,0.28 -0.47,0.46 -0.81,0.58l-0.55 0.5 -0.24 0c-0.23,0 -0.51,0.15 -0.84,0.42 -0.31,0.29 -0.47,0.55 -0.47,0.81 0,0.11 0.13,0.33 0.37,0.67 0.23,-0.17 1.01,0.68 2.36,2.55 1.36,1.87 2.03,3.67 2.03,5.39 0,1.26 -0.18,2.08 -0.57,2.46 -0.38,0.39 -0.56,0.66 -0.56,0.82 0,0.11 0.04,0.44 0.12,0.98l0 0.17c0,0.27 -0.15,0.45 -0.48,0.5 -0.32,0.06 -0.51,0.16 -0.57,0.33l0 1.06 -0.15 0.5c-0.38,0.2 -0.75,0.86 -1.14,1.99 -0.84,0.87 -1.44,1.36 -1.8,1.48l-0.09 0.16 0.09 1.15c0,0.27 -0.13,0.5 -0.39,0.66 -0.24,0.17 -0.59,0.53 -1.02,1.08 -0.43,0.55 -0.88,0.94 -1.33,1.17 -0.1,0.53 -0.31,0.9 -0.64,1.13 -0.32,0.22 -0.65,0.55 -0.98,0.97l-0.26 0.17c-0.25,0.06 -0.49,0.36 -0.71,0.92l-0.34 0.09c-0.39,0.68 -0.77,1.17 -1.16,1.45 -0.37,0.31 -0.64,0.58 -0.8,0.84l-0.68 0.42c-0.24,0.5 -0.76,1.08 -1.55,1.72 -0.06,0 -0.18,-0.08 -0.33,-0.26l-0.13 0c-0.12,0 -0.22,0.12 -0.31,0.35 -0.07,0.22 -0.23,0.43 -0.46,0.63 -0.21,0.19 -0.44,0.48 -0.67,0.84l-0.16 0.17c-0.38,0 -0.95,0.49 -1.74,1.48 -0.54,0.1 -1,0.31 -1.39,0.59 -0.59,0.68 -1,1.01 -1.22,1.01 -0.03,0 -0.35,-0.23 -0.94,-0.69 -0.59,-0.47 -0.87,-1.21 -0.87,-2.22 0,-0.25 -0.18,-0.54 -0.51,-0.89 -0.05,-0.3 -0.11,-0.75 -0.17,-1.34l0 -0.39c0,-0.33 0.12,-0.73 0.33,-1.18l0.26 -0.88c0.06,-0.23 0.14,-0.41 0.26,-0.56 0.1,-0.13 0.27,-0.53 0.47,-1.19 0.22,-0.66 0.47,-1.31 0.75,-1.96l0.07 -0.43c0.32,-1.34 0.57,-2 0.77,-1.97 0.17,-0.44 0.34,-1 0.5,-1.7 0.17,-0.69 0.29,-1.27 0.36,-1.73 0.07,-0.45 0.27,-0.81 0.62,-1.09l1.05 -3.37zm8.7 -8.11l0.17 1.82c0,0.11 -0.23,0.64 -0.69,1.62 -0.48,0.97 -0.78,1.74 -0.91,2.33 -0.14,0.59 -0.46,0.9 -0.93,0.9l-0.42 0c-0.06,0.11 -0.09,0.21 -0.09,0.33l0.09 0.93c0,0.36 -0.1,1.01 -0.3,1.93 -0.19,0.94 -0.48,1.53 -0.84,1.77l-0.26 0.31c-0.06,0.41 -0.27,1.09 -0.65,2 -0.38,0.92 -0.7,1.62 -0.95,2.14 -0.25,0.54 -0.44,1.17 -0.59,1.95 -0.14,0.77 -0.33,1.26 -0.54,1.49 -0.18,0.8 -0.35,1.44 -0.52,1.96 -0.16,0.52 -0.38,1.23 -0.62,2.09 0.04,0.11 0.13,0.17 0.24,0.17 0.18,0 0.39,-0.3 0.64,-0.92 0.11,-0.11 0.3,-0.2 0.57,-0.24 0.26,-0.03 0.49,-0.34 0.69,-0.91l0.09 -0.16c0.3,-0.06 0.53,-0.22 0.68,-0.49 0.13,-0.26 0.29,-0.43 0.46,-0.49 0.17,-0.06 0.36,-0.19 0.59,-0.42l0.29 -0.08c0.11,-0.06 0.21,-0.2 0.3,-0.46 0.09,-0.26 0.19,-0.45 0.29,-0.59l0.59 0 0.17 -0.09c0.23,-0.89 0.5,-1.48 0.82,-1.74 0.33,-0.28 0.58,-0.59 0.75,-0.95 0.16,-0.38 0.36,-0.65 0.6,-0.85 0.25,-0.19 0.42,-0.56 0.54,-1.1 0.5,-0.59 0.82,-1.05 0.96,-1.39 0.15,-0.33 0.33,-0.62 0.59,-0.84l0.09 -0.3 -0.17 -0.5 0 -0.18c0,-0.21 0.33,-0.77 0.99,-1.68 0.66,-0.89 1.06,-1.64 1.24,-2.25 0.17,-0.6 0.31,-1.09 0.46,-1.45 0.14,-0.37 0.26,-0.79 0.34,-1.25 0.08,-0.46 0.23,-0.84 0.46,-1.14 0.22,-0.29 0.33,-0.69 0.33,-1.19 0,-0.88 -0.38,-1.98 -1.18,-3.3 -0.05,-0.06 -0.11,-0.22 -0.15,-0.51 -0.06,-0.28 -0.34,-0.6 -0.82,-0.99 -0.51,-0.37 -0.85,-0.56 -1.08,-0.56l-0.34 0.16c-0.05,0.05 -0.23,0.14 -0.53,0.26 -0.29,0.11 -0.45,0.37 -0.45,0.8l0 0.16 0.09 0.94c0,0.24 -0.36,0.57 -1.09,0.96zm28.09 -41.29l0.59 -0.17 0.41 -0.42 0.09 0 0.37 0.17 0.09 0c0.68,0 1.28,-0.14 1.8,-0.4 0.53,-0.27 0.96,-0.46 1.32,-0.58 0.35,-0.1 0.58,-0.18 0.65,-0.24 0.09,-0.06 0.16,-0.09 0.22,-0.09l0.69 0.09c0.22,0 0.52,-0.4 0.91,-1.21 0.37,-0.79 0.8,-1.38 1.28,-1.74 0.47,-0.38 0.95,-1.05 1.42,-2.07 0.12,-0.13 0.25,-0.36 0.39,-0.65 0.13,-0.3 0.25,-0.45 0.33,-0.45 0.42,0 0.77,-0.26 1.01,-0.8 0.85,-0.98 1.54,-1.47 2.07,-1.47 0.71,0 1.2,0.67 1.47,2.03l0.42 1.59c0,0.03 -0.06,0.23 -0.2,0.61 -0.15,0.39 -0.2,0.76 -0.19,1.14 0.01,0.38 0,0.63 -0.04,0.76 -0.05,0.13 -0.07,0.27 -0.07,0.45 0,0.23 0.24,0.33 0.72,0.33 0.17,0 0.47,-0.1 0.93,-0.33l0.25 -0.09c0.28,0.17 0.52,0.26 0.72,0.26 0.05,0 0.46,-0.15 1.19,-0.43 0.75,-0.28 1.22,-0.44 1.43,-0.46 0.18,-0.03 0.53,-0.15 1,-0.34l0.51 0 0.34 0.12c0.11,0 0.33,-0.12 0.69,-0.35 0.35,-0.24 1.03,-0.38 2.01,-0.44l0.59 -0.26 0.17 0c0.92,0 1.38,0.42 1.38,1.22 0,0.18 -0.13,0.46 -0.39,0.9 -0.27,0.41 -0.49,0.89 -0.66,1.42l-1.94 2.45c-0.65,0.85 -1.29,1.26 -1.93,1.26 -0.12,0 -0.48,-0.37 -1.07,-1.13 0,-0.06 -0.06,-0.09 -0.16,-0.09 -0.28,0 -0.57,0.06 -0.89,0.17 -0.3,0.12 -0.56,0.18 -0.76,0.18 -0.07,0 -0.82,0.2 -2.23,0.62l-1.01 0.17c-0.12,0 -0.39,0.06 -0.81,0.17l-2.14 0.42c-0.74,0.37 -1.31,1.05 -1.73,2.07 0,0.06 -0.14,0.17 -0.43,0.38l-1.9 3.45c-0.62,0.17 -1.02,0.53 -1.23,1.1l-0.16 0.25c-0.31,0.06 -0.59,0.23 -0.84,0.54 -0.26,0.29 -0.49,0.52 -0.72,0.69l-0.75 1.14c-0.32,0.39 -0.62,0.82 -0.94,1.28 -0.3,0.47 -0.53,0.96 -0.67,1.48 -0.15,0.52 -0.25,0.82 -0.34,0.91 -0.08,0.08 -0.13,0.23 -0.13,0.46l-0.13 0.33c-0.33,0.34 -0.5,0.72 -0.5,1.15l0.17 0.66c-0.4,1.36 -0.59,2.08 -0.59,2.16 0,0.06 0.03,0.2 0.09,0.46l0 0.26c0,0.62 -0.23,1.38 -0.68,2.32l0.09 0.68 -0.26 1.88c0,0.26 0.09,0.72 0.26,1.4 -0.12,0.12 -0.17,0.2 -0.17,0.26 0,0.78 0.41,1.64 1.23,2.59 0.84,0.94 1.26,2.4 1.26,4.41 0,0.17 -0.05,0.41 -0.13,0.73 -0.09,0.33 -0.15,0.68 -0.17,1.05 -0.03,0.39 -0.25,0.76 -0.65,1.12 -0.42,0.36 -0.75,0.55 -1.04,0.55 -1.5,0 -2.61,-1.08 -3.32,-3.24 -0.74,-2.16 -1.11,-3.55 -1.11,-4.17l0.08 -1.64 -0.24 -0.85 0.24 -3.7 -0.17 -0.9 0.98 -3.62 0 -1.31c0,-0.06 0.2,-0.28 0.59,-0.68 0,-0.06 -0.06,-0.09 -0.17,-0.09 -0.18,0 -0.39,0.18 -0.68,0.52 -0.27,0.33 -0.63,0.66 -1.05,0.96l-0.33 0.6c-0.06,-0.06 -0.18,-0.12 -0.35,-0.18 -0.14,0.06 -0.6,0.72 -1.38,1.99 -0.59,0.09 -1.07,0.42 -1.4,1.01 -0.34,0.59 -0.8,0.89 -1.39,0.89l-0.18 0.09c-0.1,0.8 -0.5,1.22 -1.18,1.22l-0.15 0.09c-0.44,0.95 -0.87,1.41 -1.31,1.38 -0.29,0.85 -0.98,1.42 -2.08,1.73 -0.16,0.34 -0.42,0.59 -0.73,0.76 -0.32,0.17 -0.56,0.33 -0.69,0.46 -0.15,0.14 -0.28,0.22 -0.39,0.22 -0.36,0 -0.55,-0.39 -0.55,-1.18 0,-0.24 0.1,-0.48 0.27,-0.74 0.19,-0.27 0.28,-0.46 0.28,-0.58 0,-0.05 -0.13,-0.23 -0.42,-0.5 0,-0.88 0.23,-1.42 0.68,-1.64 0.44,-0.23 0.77,-0.55 1,-0.98 0.15,-0.33 0.42,-0.58 0.85,-0.72 0.42,-0.13 0.62,-0.32 0.62,-0.55 0,-0.18 0.38,-0.59 1.11,-1.18 0.72,-0.59 1.25,-1.09 1.6,-1.54 0.33,-0.43 0.62,-0.65 0.83,-0.65l0.18 -0.17c0.06,-0.7 0.33,-1.05 0.8,-1.05l0.42 -0.26 0.09 -0.33 0.24 -0.17 0.35 0 0.2 -0.16c0.06,-0.71 0.39,-1.25 0.99,-1.66 0.61,-0.38 1.72,-1.49 3.31,-3.31 1.6,-1.81 2.51,-2.96 2.7,-3.48 0.2,-0.51 0.56,-1.18 1.08,-2.05 0.51,-0.84 0.8,-1.65 0.86,-2.41 -0.06,-0.12 -0.14,-0.23 -0.26,-0.35l-1.81 0.89c0,-0.08 -0.28,-0.21 -0.84,-0.37 -0.43,0.24 -0.73,0.5 -0.93,0.75 -0.19,0.26 -0.35,0.39 -0.46,0.39l-0.6 -0.09 -1.85 0.2c-1.66,0.15 -2.91,0.49 -3.76,1.02l-1.73 0.51 -0.37 0c-0.23,0 -0.56,0.14 -1.01,0.42l-0.98 -0.09c-0.89,0.49 -1.55,0.72 -1.99,0.72 -0.04,0 -0.21,-0.03 -0.5,-0.09l-4.3 1.18c-0.33,0.12 -1.1,0.69 -2.28,1.73l-0.33 0.09c-0.29,0 -0.62,-0.32 -0.99,-0.95 -0.38,-0.64 -0.58,-1.2 -0.58,-1.7 0,-2.8 2.39,-4.41 7.19,-4.85l1.72 -0.68 0.07 0 0.48 0.17 0.16 0c0.17,0 0.45,-0.11 0.8,-0.32 0.36,-0.21 1.19,-0.47 2.45,-0.77l1.73 -0.48 0.55 0.09c0.28,0 0.6,-0.12 0.95,-0.33 0.36,-0.23 0.89,-0.39 1.6,-0.49 0.72,-0.1 1.22,-0.2 1.49,-0.32l0.68 -0.17c0.11,0 0.34,-0.09 0.7,-0.29 0.35,-0.2 0.81,-0.3 1.37,-0.3 0.09,0 0.29,0.06 0.64,0.17zm15.28 25.87l0 -0.43c0,-0.27 0.29,-0.88 0.85,-1.81 0.57,-0.92 1.2,-1.53 1.93,-1.82 0.06,0 0.09,-0.01 0.09,-0.07l-0.09 -0.68c0.12,-0.11 0.39,-0.47 0.85,-1.09 0.45,-0.62 0.88,-0.89 1.3,-0.81 0.32,-0.44 0.7,-0.82 1.18,-1.12 0.47,-0.29 0.92,-0.68 1.31,-1.15l1.55 -0.98c1.1,-0.72 1.9,-1.09 2.41,-1.09l0.63 0c0.33,-0.57 0.78,-0.84 1.34,-0.84 0.53,0 0.89,0.09 1.05,0.25 0.06,0.05 0.12,0.08 0.18,0.08 0.02,0 0.2,-0.11 0.5,-0.33 0.32,-0.23 0.69,-0.34 1.14,-0.34 0.11,0 0.74,0.23 1.9,0.67 0.33,-0.33 0.66,-0.5 0.96,-0.5 0.12,0 0.32,0.08 0.59,0.26 0.29,0.17 0.58,0.31 0.86,0.44 0.31,0.13 0.6,0.65 0.87,1.57 0.29,0.92 0.42,1.44 0.42,1.54 0,0.46 -0.36,1 -1.11,1.6 -0.75,0.61 -1.44,0.91 -2.09,0.91 -0.22,0 -0.5,-0.2 -0.83,-0.59 -0.85,-0.18 -1.57,-0.38 -2.15,-0.64 -0.79,0.18 -1.4,0.38 -1.81,0.64l-0.09 0 -0.37 -0.35 -0.35 -0.07 -0.09 0c-0.07,0.1 -0.18,0.3 -0.33,0.59 -0.44,0.3 -0.83,0.5 -1.15,0.61 -0.33,0.1 -0.59,0.25 -0.79,0.46 -0.19,0.21 -0.52,0.43 -0.98,0.66 -0.46,0.21 -0.81,0.53 -1.04,0.92 -0.56,0.3 -0.96,0.49 -1.22,0.55l-0.25 0c-0.22,0.44 -0.74,1.19 -1.55,2.23l-1.1 1.81c-0.25,0.22 -0.56,0.48 -0.93,0.78 -0.36,0.29 -0.55,0.55 -0.55,0.78 0,0.05 0.03,0.2 0.09,0.41l0 0.44c0,0.16 -0.13,0.36 -0.4,0.6 -0.26,0.25 -0.41,0.42 -0.41,0.53l0.09 0.92 -0.33 1.47c0,0.88 0.63,1.31 1.9,1.31l0.62 0 1.81 -0.3c0.59,-0.07 1.1,-0.16 1.48,-0.24 0.39,-0.09 0.62,-0.13 0.68,-0.13 0.06,0 0.27,-0.16 0.68,-0.46l0.42 0 0.37 -0.09c0.12,-0.59 0.92,-1.08 2.4,-1.48 0.35,-0.51 0.91,-0.87 1.72,-1.11 0.8,-0.25 1.61,-0.75 2.43,-1.54l0.63 0c0.08,0 0.35,-0.16 0.78,-0.49 0.43,-0.32 0.88,-0.58 1.35,-0.78 0.47,-0.2 0.75,-0.36 0.87,-0.5 0.1,-0.15 0.31,-0.28 0.63,-0.38 0.51,-0.79 1.11,-1.28 1.82,-1.48l0.16 -0.17c0.45,-0.39 0.73,-0.59 0.84,-0.59l0.51 0.08c0.29,0 0.46,-0.17 0.53,-0.52 0.07,-0.36 0.52,-0.83 1.34,-1.43 0.83,-0.61 1.37,-0.91 1.58,-0.91 0.53,0 0.81,0.27 0.81,0.83 0,0.44 -0.25,0.67 -0.72,0.72 0.32,0.74 0.46,1.14 0.46,1.23 0,0.92 -0.46,1.52 -1.38,1.81 -0.12,0.06 -0.18,0.15 -0.18,0.25l-0.08 0.76c0.03,0 0.03,0.03 0,0.07 -0.03,0.03 -0.09,0.1 -0.17,0.19l-0.62 0.08 -0.18 0.25c-0.62,0.34 -1.33,0.92 -2.16,1.73l-0.83 0.89 -0.13 0c-0.29,-0.29 -0.5,-0.43 -0.68,-0.43 -0.11,0 -0.26,0.2 -0.41,0.59 -0.97,0.96 -1.66,1.51 -2.08,1.64 -0.17,0.06 -0.46,0.29 -0.88,0.68l-0.85 0.54 -0.63 0c-0.08,0.09 -0.16,0.2 -0.23,0.36 -0.07,0.16 -0.32,0.39 -0.73,0.69 -0.44,0.32 -0.74,0.59 -0.91,0.82 -0.19,0.25 -0.45,0.42 -0.79,0.54l-0.75 -0.18c-0.26,0.47 -0.72,0.68 -1.4,0.68 -0.17,0.12 -0.41,0.33 -0.73,0.65 -0.33,0.33 -0.55,0.49 -0.66,0.49 -0.1,0 -0.41,-0.17 -0.88,-0.51l-0.09 0c-0.29,0 -0.42,0.22 -0.42,0.64 0,0.41 -0.26,0.65 -0.79,0.67 -0.52,0.03 -0.99,0.16 -1.45,0.42l-0.09 0c-0.63,0 -1.11,-0.11 -1.38,-0.36 -0.29,-0.23 -0.53,-0.42 -0.76,-0.53 -0.88,0.29 -1.34,0.43 -1.4,0.43 -0.33,0 -0.66,-0.14 -0.96,-0.43l-1.82 -0.92c-0.11,-0.09 -0.31,-0.46 -0.59,-1.14l-0.26 -0.33c-0.89,-0.17 -1.5,-1.11 -1.81,-2.79l-0.33 -1.01c-0.06,-0.06 -0.09,-0.19 -0.09,-0.38 0,-0.28 0.12,-0.72 0.33,-1.29 0.23,-0.58 0.46,-1.34 0.68,-2.32 0.23,-0.96 0.69,-1.58 1.39,-1.83zm57.61 1.31l0.66 -0.59c0.42,0 0.68,-0.18 0.75,-0.57 0.09,-0.38 0.39,-0.68 0.91,-0.91 0.51,-0.22 0.99,-0.68 1.43,-1.37 0.45,-0.69 0.91,-1.03 1.39,-1.03 0.17,0 0.36,0.14 0.59,0.41 0.21,0.29 0.33,0.51 0.33,0.68 0,0.94 -0.29,1.89 -0.85,2.86l-0.16 1.19 -0.3 0.56c-0.42,0.21 -0.69,0.46 -0.82,0.7 -0.13,0.26 -0.46,0.56 -0.99,0.94l-0.42 0.59c-0.62,0.2 -1.04,0.52 -1.24,0.96 -0.22,0.46 -0.51,0.71 -0.89,0.77 -0.38,0.05 -0.8,0.33 -1.24,0.84 -0.29,0.13 -0.62,0.26 -1.01,0.38l-0.09 0.42c-0.28,0.28 -0.73,0.5 -1.34,0.67 -0.59,0.18 -1.05,0.33 -1.33,0.49 -0.31,0.16 -0.51,0.23 -0.62,0.23 -0.54,0 -1.02,-0.1 -1.47,-0.31 -0.45,-0.22 -0.92,-0.35 -1.4,-0.41 -0.16,-0.16 -0.26,-0.34 -0.29,-0.54 -0.02,-0.19 -0.17,-0.45 -0.43,-0.78 -0.24,-0.32 -0.37,-0.76 -0.37,-1.33l0.17 -0.8c0,-0.1 -0.07,-0.25 -0.22,-0.42 -0.14,-0.16 -0.21,-0.3 -0.21,-0.42 0,-0.11 0.03,-0.2 0.08,-0.26 0.06,-0.04 0.09,-0.13 0.09,-0.24 0,-0.14 -0.03,-0.3 -0.09,-0.46 -0.05,-0.17 -0.08,-0.32 -0.08,-0.42l0.26 -2.07c0,-0.18 -0.06,-0.25 -0.18,-0.25 -0.1,0 -0.31,0.13 -0.6,0.42 -0.3,0.29 -0.65,0.42 -1.04,0.42 -0.23,0.17 -0.4,0.53 -0.54,1.06 -0.23,0.28 -0.51,0.54 -0.85,0.77l-0.18 0.24c-0.05,0.2 -0.25,0.36 -0.63,0.49 -0.36,0.13 -0.62,0.29 -0.75,0.49l-0.43 0.42 -0.81 -0.09c-0.04,0.06 -0.2,0.3 -0.46,0.74 -0.24,0.44 -0.57,0.8 -0.96,1.08l-3.21 2.62c-0.35,0.23 -0.84,0.5 -1.48,0.85l-0.26 0.24c-2.25,1.5 -3.85,2.25 -4.77,2.25 -0.76,0 -1.66,-0.22 -2.66,-0.64 -1.01,-0.41 -1.56,-0.92 -1.64,-1.52l-0.44 -1.73c-0.24,-0.39 -0.37,-0.94 -0.37,-1.64 0,-0.35 0.03,-0.56 0.09,-0.68l0 -0.26 -0.09 -1.38c0,-0.35 0.27,-0.52 0.81,-0.52l-0.09 -1.14c0,-0.11 0.24,-0.54 0.73,-1.32 0.49,-0.78 0.82,-1.22 1,-1.34l0.41 -0.55c-0.02,-0.33 0.18,-0.69 0.59,-1.08 0.44,-0.37 0.77,-0.76 1.03,-1.15 0.26,-0.4 0.73,-0.83 1.44,-1.31l1.26 -1.27c1,-0.99 2.08,-1.77 3.23,-2.36 0.17,-0.05 0.52,-0.34 1.03,-0.85 0.52,-0.5 1.13,-0.87 1.79,-1.12 0.66,-0.23 1.31,-0.53 1.94,-0.91 0.64,-0.36 1.14,-0.54 1.5,-0.54l0.35 0c0.11,0 0.86,-0.35 2.24,-1.05l0.25 0c0.11,0 0.39,0.11 0.8,0.33l0.09 0 0.68 -0.33c0.11,-0.06 0.26,-0.09 0.43,-0.09 1.74,0 2.71,1.21 2.88,3.61 0.06,0.51 0.2,0.77 0.42,0.77 0.28,0 0.69,-0.52 1.21,-1.54 0.51,-1.03 1.62,-1.54 3.31,-1.54 1.21,0 1.81,0.77 1.81,2.31 0,1.83 -0.81,3.57 -2.43,5.2 -0.12,0.23 -0.2,0.48 -0.26,0.76l-0.59 1.73 0 0.09c0,0.16 -0.12,0.4 -0.36,0.69 -0.25,0.3 -0.36,0.56 -0.36,0.78l0.08 1.06 -0.17 1.18c0,0.53 0.1,0.88 0.3,1.05 0.9,-0.23 1.54,-0.6 1.95,-1.12 0.4,-0.52 0.69,-0.81 0.85,-0.86l0.41 -0.18c0.26,-0.41 0.55,-0.76 0.9,-1.05zm-14.01 0.02c0.1,-0.62 0.44,-1.08 1.02,-1.41 0.58,-0.32 0.92,-0.65 1.04,-1 0.53,-0.39 1.29,-1.09 2.29,-2.1 0.99,-1.01 1.48,-1.63 1.48,-1.86 0,-0.07 -0.06,-0.11 -0.16,-0.11l-0.08 0 -0.35 0.2 -0.75 -0.09 -0.81 0.09 -0.57 -0.29 -0.55 0.09 -0.85 -0.17c-0.44,0 -0.83,0.08 -1.15,0.27 -0.32,0.19 -0.93,0.39 -1.84,0.6 -0.92,0.23 -1.74,0.62 -2.46,1.17 -0.74,0.55 -1.27,0.82 -1.6,0.82 -0.2,0.42 -0.85,1.02 -1.97,1.81 -0.68,0.22 -1.11,0.71 -1.31,1.47 -0.72,0.59 -1.1,0.92 -1.1,1.01l-0.29 0.72c-0.23,0.2 -0.5,0.36 -0.85,0.49 -0.33,0.12 -0.53,0.42 -0.59,0.88 -0.05,0.46 -0.24,0.88 -0.56,1.27 -0.33,0.37 -0.49,0.67 -0.49,0.9 0,1.37 0.28,2.06 0.81,2.06 0.22,0 0.69,-0.14 1.41,-0.45 0.72,-0.28 1.12,-0.49 1.24,-0.6 0.11,-0.12 0.33,-0.23 0.68,-0.35l0.79 -0.41c0.11,-0.12 0.24,-0.18 0.37,-0.2 0.14,-0.03 0.29,-0.13 0.43,-0.28 0.13,-0.16 0.39,-0.33 0.75,-0.52 0.38,-0.17 0.65,-0.41 0.85,-0.73 0.48,-0.27 1.24,-0.71 2.3,-1.3l0.88 -0.67c0.62,-0.29 1,-0.52 1.14,-0.72 0.14,-0.2 0.42,-0.39 0.85,-0.59zm26.88 -9.59l0.62 -0.16 0.26 -0.56c1.36,-0.81 2.34,-1.58 2.93,-2.32 0.06,-0.11 0.19,-0.22 0.39,-0.33 0.19,-0.12 0.4,-0.32 0.62,-0.59 1.04,-1.05 2.28,-1.57 3.72,-1.57 1.68,0 2.57,1.02 2.69,3.08l0.26 0.63c0.21,0.39 0.53,1.2 0.95,2.41 0.4,1.21 0.6,1.96 0.6,2.23 0,0.76 -0.24,1.53 -0.72,2.28 -0.39,0.2 -1.34,1.25 -2.82,3.16l-0.42 0.31c-0.23,0.5 -0.52,1 -0.89,1.51 -0.56,0.2 -0.83,0.4 -0.83,0.63l0 0.76c0,0.06 -0.08,0.18 -0.21,0.33 -0.11,0.18 -0.3,0.51 -0.52,0.98l-0.34 0.51c-0.12,0.11 -0.22,0.34 -0.33,0.69 -0.12,0.36 -0.28,0.67 -0.49,0.95 -0.22,0.29 -0.32,0.5 -0.32,0.67 0,0.42 0.55,0.64 1.64,0.64 0.06,0 0.28,-0.09 0.64,-0.26l0.59 0.17c0.05,0 0.2,-0.08 0.43,-0.27 0.23,-0.19 0.56,-0.33 1.03,-0.45 0.47,-0.1 0.87,-0.27 1.23,-0.5 0.34,-0.22 0.78,-0.42 1.27,-0.59 0.49,-0.16 0.96,-0.45 1.41,-0.82 0.46,-0.38 0.89,-0.65 1.34,-0.82 0.43,-0.18 0.83,-0.44 1.22,-0.78 0.37,-0.35 0.81,-0.68 1.28,-0.99 0.49,-0.31 1.25,-0.98 2.29,-2.02 0.68,-0.53 1.14,-0.83 1.4,-0.89 0.05,0 0.3,-0.38 0.73,-1.11 0.43,-0.75 0.94,-1.12 1.5,-1.12 0.59,0 0.89,0.27 0.89,0.83 0,0.32 -0.14,0.61 -0.42,0.89l0 0.26 0.09 0.67c0.04,0.08 0.07,0.21 0.07,0.38 0,0.1 -0.1,0.28 -0.32,0.51 -0.2,0.21 -0.35,0.5 -0.43,0.86 -0.08,0.35 -0.36,0.58 -0.8,0.69 -0.18,0.62 -0.39,0.97 -0.67,1.05 -0.25,0.09 -0.63,0.38 -1.1,0.85 -0.48,0.48 -1.16,1.04 -2.03,1.69 -0.88,0.65 -1.47,1.13 -1.8,1.49 -0.32,0.35 -0.54,0.52 -0.65,0.52 -0.06,0 -0.17,-0.05 -0.33,-0.15 -0.18,-0.12 -0.29,-0.18 -0.35,-0.18 -0.17,0 -0.27,0.2 -0.33,0.59l-0.17 0.42c-0.36,0.23 -0.58,0.35 -0.64,0.35l-0.25 -0.09 -0.16 0c-0.35,0 -0.52,0.11 -0.52,0.37l0.26 0.42 0 0.09c0,0.39 -0.23,0.59 -0.68,0.59 -0.3,0 -1.21,0.52 -2.69,1.55l-1.24 0.26 -1.01 0.55c-0.33,-0.2 -0.54,-0.3 -0.63,-0.3l-0.68 0.21 -1.22 0.09c-0.03,0 -0.53,-0.29 -1.54,-0.85 -1,-0.56 -1.6,-1.12 -1.79,-1.69 -0.2,-0.56 -0.46,-1.12 -0.76,-1.69 -0.32,-0.58 -0.46,-0.98 -0.46,-1.21 0,-1.36 0.1,-2.31 0.33,-2.88 0.23,-0.59 0.36,-1.01 0.42,-1.3 0.06,-0.27 0.21,-0.57 0.49,-0.91 0.27,-0.31 0.49,-0.84 0.66,-1.58 0.81,-1.63 1.37,-2.62 1.68,-2.99 0.31,-0.36 0.55,-0.81 0.71,-1.34l0.56 -0.77c0.04,-0.05 0.13,-0.27 0.25,-0.64 0.11,-0.39 0.26,-0.61 0.41,-0.67 0.23,-0.38 0.35,-0.64 0.35,-0.76 0,-0.81 -0.38,-1.22 -1.09,-1.22 -0.15,0 -0.31,0.16 -0.48,0.44 -0.16,0.31 -0.55,0.59 -1.15,0.88 -0.61,0.28 -0.98,0.49 -1.13,0.64 -0.12,0.12 -0.43,0.31 -0.89,0.51 -0.47,0.22 -0.86,0.55 -1.21,1l-0.7 0.34c-0.23,0.54 -0.43,0.84 -0.59,0.9 -0.17,0.05 -0.69,0.18 -1.56,0.41 -0.05,0.03 -0.2,0.2 -0.41,0.51 -0.24,0.31 -0.55,0.46 -0.98,0.46 -0.33,0.34 -0.67,0.73 -1.01,1.19 -0.12,0 -0.41,0.12 -0.88,0.33l-0.83 0.22c-0.24,0.17 -0.48,0.43 -0.75,0.81 -0.26,0.36 -0.77,0.54 -1.49,0.54 -0.41,0 -0.63,-0.33 -0.63,-1.01 0,-1.38 0.49,-2.49 1.45,-3.29 0.97,-0.82 1.67,-1.25 2.12,-1.31 0.45,-0.06 0.74,-0.23 0.85,-0.52 0.1,-0.27 0.37,-0.5 0.82,-0.69 0.43,-0.19 0.94,-0.59 1.51,-1.23 0.58,-0.63 1.2,-1.06 1.87,-1.28l0.51 -0.6zm24.82 16.43l-0.33 -2.15c0,-0.17 0.07,-0.45 0.24,-0.81 0.17,0 0.32,-0.05 0.42,-0.17l-0.25 -0.76c0,-0.98 0.28,-1.83 0.83,-2.55 0.54,-0.72 0.84,-1.21 0.9,-1.45 0.06,-0.26 0.46,-1.08 1.21,-2.48 0.75,-1.4 1.3,-2.29 1.67,-2.68l0.25 -0.55 0.34 -0.08c0.65,-1.04 1.56,-1.99 2.74,-2.84 0.4,-0.62 0.88,-1.12 1.44,-1.51 0.56,-0.39 0.95,-0.68 1.13,-0.85 0.21,-0.16 0.51,-0.27 0.9,-0.33l0.17 -0.09c0.82,-0.82 1.51,-1.22 2.1,-1.22 0.2,-0.2 0.61,-0.42 1.2,-0.68l0.46 0c0.17,0 0.33,-0.05 0.5,-0.17 0.17,-0.11 0.35,-0.17 0.51,-0.17 0.11,0 0.41,0.11 0.89,0.34 0.44,-0.44 0.82,-0.67 1.09,-0.67 0.59,0 1.2,0.23 1.8,0.67 0.61,0.45 0.99,1 1.17,1.64 0.16,0.65 0.3,1.03 0.42,1.14 0.11,0.12 0.23,0.26 0.34,0.43 0.22,0 0.52,-0.53 0.88,-1.57l0.5 -0.67c0.78,-0.98 1.3,-2.13 1.59,-3.46 0.05,-0.05 0.14,-0.29 0.26,-0.69 0.11,-0.4 0.41,-1.11 0.89,-2.09 0.83,-1.18 1.41,-2.39 1.75,-3.62l0.51 -0.75c0.34,-0.23 0.53,-0.48 0.56,-0.75 0.03,-0.26 0.12,-0.51 0.26,-0.74 0.13,-0.23 0.29,-0.5 0.47,-0.82 0.19,-0.31 0.33,-0.54 0.45,-0.64 0.12,-0.12 0.29,-0.51 0.5,-1.17 0.24,-0.66 0.51,-1.04 0.82,-1.11 0.34,-0.08 0.67,-0.24 1,-0.47l0.08 -0.29 -0.17 -0.59c0,-0.35 0.38,-0.94 1.12,-1.77 0.75,-0.85 1.29,-1.54 1.6,-2.09 0.33,-0.55 0.88,-1.4 1.64,-2.53 0.78,-1.14 1.34,-1.83 1.67,-2.08l0.98 -1.02c0.45,-0.65 1.08,-0.96 1.89,-0.96 0.62,0 1.27,0.33 1.94,0.99 0.68,0.66 1.01,1.31 1.01,1.96 0,0.23 -0.14,0.75 -0.46,1.55l-0.09 0.52c0,0.45 -0.14,0.98 -0.46,1.6 -0.3,0.62 -0.49,1.09 -0.54,1.42l-2.36 5.79c-0.29,0.12 -0.45,0.19 -0.51,0.25 -0.73,1.61 -1.31,2.47 -1.73,2.62l0 0.85c0,0.3 -0.2,0.53 -0.59,0.66l-0.17 0.08c-0.26,1.08 -0.58,1.85 -0.96,2.32 -0.41,0.49 -0.69,0.97 -0.87,1.46 -0.19,0.5 -0.47,0.77 -0.86,0.83 -0.4,0.06 -0.59,0.61 -0.59,1.64 -0.12,0.56 -0.41,0.84 -0.85,0.84 -0.42,0 -0.69,0.37 -0.81,1.11 -0.11,0.72 -0.66,1.12 -1.64,1.18 -0.29,0.16 -0.45,0.36 -0.5,0.59l0.33 1.05c0,0.17 -0.52,0.82 -1.56,1.98l-0.34 1.1c-0.53,0.19 -0.97,1.64 -1.3,4.33l-0.52 2.92 0.09 1.14 -0.16 0.59 0.51 1.73 -0.09 0.96c0,0.45 0.17,0.68 0.5,0.68 0.18,0 0.55,-0.26 1.14,-0.76l0.59 -0.26c1.76,-0.89 2.84,-1.77 3.25,-2.62 0.12,-0.1 0.32,-0.22 0.61,-0.33 0.29,-0.12 0.5,-0.28 0.65,-0.46 0.14,-0.2 0.26,-0.35 0.33,-0.43 1.7,-1.13 2.81,-2.12 3.3,-2.96 0.5,-0.85 1.02,-1.35 1.55,-1.52l0.33 -0.35c0.33,-0.27 0.61,-0.42 0.84,-0.42 0.47,0 0.7,0.15 0.7,0.42l-0.33 1.2c0.27,0.75 0.42,1.19 0.42,1.29 0,1 -0.43,1.6 -1.3,1.83 -0.37,0.36 -0.66,0.78 -0.86,1.27 -0.22,0.47 -0.66,0.78 -1.37,0.88 -0.47,0.67 -0.91,1.12 -1.3,1.34 -0.4,0.21 -0.58,0.43 -0.58,0.64l0 0.39c-0.24,0.33 -0.42,0.56 -0.6,0.68l-0.8 -0.17c-0.1,0.33 -0.36,0.8 -0.75,1.39 -0.15,-0.11 -0.27,-0.17 -0.38,-0.17 -0.4,0 -0.71,0.24 -0.96,0.72 -0.26,0.47 -0.45,0.72 -0.55,0.72l-0.96 0c-0.15,0.09 -0.38,0.26 -0.68,0.55 -0.32,0.28 -0.82,0.41 -1.55,0.41l-1.31 0.26c-1.23,0 -2.36,-0.4 -3.4,-1.19 -1.04,-0.81 -1.58,-1.54 -1.66,-2.2 -0.07,-0.65 -0.3,-1.46 -0.69,-2.38l-0.08 -1.73c-0.31,-1.8 -0.67,-2.69 -1.05,-2.69l-0.09 0.55 -0.33 0.17c-0.17,0.86 -0.46,1.31 -0.85,1.31 -0.17,0.07 -0.36,0.22 -0.55,0.42l-0.26 0.17c-0.11,0.04 -0.27,0.29 -0.49,0.71 -0.21,0.43 -0.79,1.02 -1.75,1.77 -0.39,1.05 -0.69,1.57 -0.9,1.57l-0.5 -0.35 -0.09 0c-0.21,0 -0.4,0.33 -0.54,0.99 -0.15,0.67 -0.42,1 -0.85,1 -0.12,0 -0.22,0.18 -0.32,0.57 -0.1,0.38 -0.35,0.62 -0.73,0.72 -0.41,0.09 -0.75,0.48 -1.07,1.15 -0.3,0.68 -0.52,1.01 -0.63,1.01 -0.06,0 -0.15,-0.03 -0.25,-0.08l-0.72 0.17c-0.14,0.2 -0.34,0.52 -0.6,0.98 -0.25,0.07 -0.48,0.19 -0.68,0.33 -0.86,0.85 -2.03,1.27 -3.47,1.27 -1.01,0 -1.81,-0.22 -2.4,-0.65 -0.61,-0.45 -0.95,-0.82 -1.07,-1.12 -0.11,-0.32 -0.31,-0.71 -0.63,-1.17 -0.32,-0.46 -0.51,-1.04 -0.59,-1.71zm31.53 -26.7l-0.42 1.23c0.36,-0.06 0.69,-0.44 0.96,-1.14 0.85,-1.21 1.43,-1.96 1.73,-2.23 0.38,0 0.65,-0.23 0.82,-0.71 0.19,-0.46 0.52,-0.92 1,-1.37 0,-0.18 0.21,-0.57 0.63,-1.13 0.42,-0.56 0.71,-0.97 0.82,-1.2 0.13,-0.24 0.39,-0.56 0.78,-0.95 0.4,-0.4 0.78,-1.06 1.12,-2.03 0.36,-0.95 0.66,-1.52 0.91,-1.72 0.26,-0.21 0.39,-0.6 0.39,-1.19 0,-0.82 -0.06,-1.22 -0.18,-1.22 -0.26,0 -0.44,0.16 -0.57,0.49 -0.13,0.32 -0.4,0.73 -0.82,1.24l-1.44 2.4c-0.56,0.95 -0.92,1.72 -1.11,2.28 -0.19,0.56 -0.39,0.89 -0.63,0.99 -0.25,0.1 -0.54,0.37 -0.87,0.82l-0.59 0.59c-0.14,0.35 -0.26,0.75 -0.34,1.23l-0.38 0.34 0 0.79c0,0.38 -0.21,0.71 -0.63,1 -0.42,0.3 -0.64,0.49 -0.64,0.57l-0.54 0.92zm-14.67 17.12l0.28 -0.55c0.48,-0.17 0.8,-0.59 0.93,-1.26 0.23,-0.18 0.8,-0.89 1.72,-2.19 0.94,-1.3 1.4,-2.02 1.4,-2.15 -0.29,-0.3 -0.6,-0.44 -0.96,-0.44 -0.06,0 -0.23,0.06 -0.52,0.17 -0.28,0.12 -0.56,0.19 -0.87,0.25 -0.28,0.05 -0.6,0.17 -0.93,0.34l-1.05 -0.17c-0.32,0 -1.01,0.4 -2.08,1.22l-0.96 -0.17c-0.17,0 -0.45,0.37 -0.85,1.09l-2.15 1.73 -0.25 0c-0.39,0 -0.65,0.36 -0.8,1.07 -0.47,0.61 -0.92,1.05 -1.35,1.28 -0.42,0.24 -0.7,0.59 -0.88,1.03l0 0.55c-0.79,0.86 -1.18,1.53 -1.18,1.99 -0.59,0.56 -0.98,1.16 -1.16,1.81 -0.18,0.65 -0.39,1.2 -0.65,1.64 0.11,0.39 0.2,0.88 0.26,1.46 0.05,0.57 0.33,0.86 0.83,0.86 0.82,0 1.72,-0.49 2.69,-1.47 0.06,-0.05 0.31,-0.21 0.72,-0.47 0.42,-0.25 1.01,-0.75 1.76,-1.49 0.73,-0.74 1.15,-1.13 1.24,-1.16 0.27,-0.27 0.44,-0.42 0.5,-0.42l0.33 -0.34c0,-0.11 0.13,-0.23 0.36,-0.38 0.25,-0.14 0.57,-0.43 0.95,-0.86 0.41,-0.43 0.69,-0.69 0.91,-0.78 0.22,-0.09 0.36,-0.2 0.45,-0.36 0.08,-0.16 0.21,-0.3 0.41,-0.45 0.21,-0.13 0.31,-0.28 0.31,-0.46l0.07 -0.5 0.52 -0.42z"/>
 </g>
</svg>
