<?xml version="1.0" encoding="utf-8"?>
<!-- Generator: Adobe Illustrator 24.0.2, SVG Export Plug-In . SVG Version: 6.00 Build 0)  -->
<svg version="1.1" id="Capa_1" xmlns="http://www.w3.org/2000/svg" xmlns:xlink="http://www.w3.org/1999/xlink" x="0px" y="0px"
	 viewBox="0 0 204.3 60.4" style="enable-background:new 0 0 204.3 60.4;" xml:space="preserve">
<style type="text/css">
	.st0{fill-rule:evenodd;clip-rule:evenodd;fill:url(#SVGID_1_);}
	.st1{fill:#969696;}
	.st2{fill:#B853FA;}
</style>
<g id="logo_3_">
	<linearGradient id="SVGID_1_" gradientUnits="userSpaceOnUse" x1="16.7147" y1="21.8657" x2="38.0687" y2="34.1944">
		<stop  offset="0" style="stop-color:#FF01FF"/>
		<stop  offset="0.202" style="stop-color:#FB06FF"/>
		<stop  offset="0.4432" style="stop-color:#EF15FE"/>
		<stop  offset="0.7045" style="stop-color:#DA2DFC"/>
		<stop  offset="0.9783" style="stop-color:#BE4EFA"/>
		<stop  offset="1" style="stop-color:#BC51FA"/>
	</linearGradient>
	<path class="st0" d="M10.8,46.4c0.3-0.7-0.8-3.6,1.8-7.5l2-2.8c0.8-1,3-3.3,4.1-4.2l1.8-1.7c0.3-0.3,0.8-0.8,1.3-1.1
		c2.4-1,7.9-0.5,7.8-1.8c-0.6-1.4-5,0.2-6.2,0.4c0.3-0.6,3-3,3.8-3.8c1.7-1.7,4.3-4.8,5.5-7.1c1.1-2.3,1.9-5.3,1.3-8.3
		c-0.4-1.8-2.3-6.1-3.4-6.7c0.4,3.6,0.5,4.1-1,7.4c-1,2-2.6,3.9-3.8,5.2c-0.4,0.4-0.8,0.8-1.1,1.1l-10.5,9.8c-2.6,2.7-4,4.1-5.9,7.7
		c-1.8,3.3-1.4,7.4,0.7,10.7c0.3,0.5,1.3,2,1.8,2.4C10.8,46.4,10.6,46.2,10.8,46.4L10.8,46.4z M19.7,51c0.9,0.2,1.4,1.1,4.7,1.7
		c3.5,0.7,7.1-0.4,10-2c4.7-2.6,2.8-3.4,3.5-5.8c1.4-4.4,5.1-5.9,6.4-9.1c1.1-2.6,0.5-3.7,0.5-5.4c0.4,0.1,0.4,0.2,0.6,0.5
		c0.2,0.3,0.3,0.3,0.5,0.5c0.2,0.2,0.3,0.4,0.5,0.6c0.2,0.2,0.3,0.3,0.5,0.6c2,2.6,3,6.2,2.4,9.7c-0.6,3.5-3.4,6.6-6.5,8.2
		c-0.5,0.2-1.1,0.3-1.4,0.7c0.2,0.4,0.5,0.4,1.1,0.6c2.6,0.9,4.8,4,4.7,6.7c-0.5-0.1-1-0.4-1.5-0.5c-1.1-0.3-3.6-0.1-5.3-0.4
		c-3.3-0.6-4.2-3.2-3.8-3.6c0.8-0.4,2.8,0,3.7,0.1c0.6,0.1,1.1,0.3,1.7,0.5c0.5,0.2,1.2,0.5,1.6,0.6c-0.5-1.1-3.3-2.1-4.3-2.3
		c-0.3-0.1-0.7-0.1-1-0.1c-0.4,0-0.6,0-0.8-0.2c1.2-1.3,4.5-2,7.5-8c0.5-1,1.1-2.8,1.1-4c-0.3,0.1-0.1,0-0.3,0.2l-0.3,0.7
		C45,42.5,44.7,43,44,44c-1.8,2.5-4.2,4.9-6.9,6.6c-2.7,1.7-6.2,3.4-9.8,3.5c-1.4,0-3.5-0.2-4.6-0.8c-0.9-0.4-2.1-1.2-2.8-1.9
		C19.7,51.2,19.8,51.4,19.7,51L19.7,51z M5.4,41.4c-1.2-0.5-2.6-4.3-2.8-5.9C1.9,31.9,3,28.1,5,25.3l3-3.6c0.2-0.2,0.4-0.4,0.5-0.6
		l2.8-2.5c1.4-1.2,7.8-6.4,9.7-7.7l2.4-2c0.8-0.7,1.5-1.3,2.3-2c3.2-2.9,3.1-4.5,3.7-4.9c1,1.3-1.6,5.1-2.1,5.8
		c-2,2.7-1.4,1.7-3.8,4.3c-1.7,1.8-3.5,3.3-5.3,4.9l-1,1c-0.9,0.8-1,0.8-2.2,1.9c-0.9,0.9-4.4,4.2-5.1,5.2l-2.7,3.4
		c-1,1.4-2.1,3.6-2.6,5.6C3.8,38.4,5,39.5,5.4,41.4L5.4,41.4z M18.4,33.4c1.7-0.1,3.7,0.6,5.5,0c2.7-0.8,1.7-2.8,3-2.8l-0.2,0.6
		c0.3,0.1,0.5,0.1,0.6,0.5c0.4,0.7,0.4,1.1,0.1,1.6c-0.2,0.4-0.1,0.3,0,0.8l-1-0.1c0.1,0.5,0.3,0.4,0.3,1l-0.9-0.3l0.2,0.7
		c-0.5-0.1-0.5-0.3-1-0.4l0.2,0.9c-0.7-0.2-0.4-0.4-0.8-0.6l0.2,0.9c-0.3,0-0.7-0.4-0.9-0.5L23.5,36c-0.1,0.1,0,0-0.1,0.2
		C23,36,23.2,36,22.8,35.8c0.1,0.4,0.2,0.5,0.3,0.8c-0.5-0.1-0.3-0.5-1.1-0.7l-0.2,0.6c-0.4-0.4-0.3-0.5-0.8-0.8
		c-1.8-0.9-0.9-0.6-1.7-1.4C18.8,33.9,18.6,33.9,18.4,33.4L18.4,33.4z M28.7,43.9c0.5-0.4,1.2-0.6,1.7-1c0.7-0.5,0.7-0.7,1.3-1.3
		c1.7-1.9,1.4-1,2.4-1.6c0.4-0.2,0.3-0.4,0.9-0.5c-0.1,0.6-0.5,2-0.7,2.6C32.9,46.2,29.1,45.1,28.7,43.9L28.7,43.9z M33.9,26.1
		c0-0.8,0.2-0.8,0.5-1.4c0.6-1.6-0.3-2.6,1-1.9c0.4,0.2,0.9,0.2,1.5,0.2c-0.2,0.4-0.2,0.3-0.4,0.5c0.2,0.3,0.2,0.1,0.3,0.4
		c-0.6,0.3-0.3,0.2-0.4,0.9C36.1,26.1,35.3,26,33.9,26.1z"/>
	<g>
		<path class="st1" d="M71.3,42.6c0,0.1,0,0.1,0,0.2c0,0,0,0.1,0,0.1c0,0,0,0.1-0.1,0.1c0,0-0.1,0-0.1,0h-3.8v3.7h3.6
			c0,0,0.1,0,0.1,0c0,0,0.1,0,0.1,0.1c0,0,0,0.1,0,0.1c0,0,0,0.1,0,0.2c0,0.1,0,0.1,0,0.2c0,0,0,0.1,0,0.1c0,0,0,0.1-0.1,0.1
			c0,0-0.1,0-0.1,0h-3.6v4.3c0,0,0,0.1,0,0.1c0,0,0,0-0.1,0.1c0,0-0.1,0-0.1,0c-0.1,0-0.1,0-0.2,0c-0.1,0-0.2,0-0.2,0
			c-0.1,0-0.1,0-0.1,0c0,0-0.1,0-0.1-0.1s0-0.1,0-0.1v-9.1c0-0.2,0-0.3,0.1-0.4c0.1-0.1,0.2-0.1,0.3-0.1h4.3c0,0,0.1,0,0.1,0
			c0,0,0.1,0,0.1,0.1s0,0.1,0,0.1C71.3,42.4,71.3,42.5,71.3,42.6z"/>
		<path class="st1" d="M74.4,42.6c0,0.2,0,0.4-0.1,0.5s-0.2,0.1-0.5,0.1c-0.2,0-0.4,0-0.5-0.1c-0.1-0.1-0.1-0.2-0.1-0.5
			c0-0.2,0-0.4,0.1-0.5s0.2-0.1,0.5-0.1c0.2,0,0.4,0,0.5,0.1C74.3,42.2,74.4,42.4,74.4,42.6z M74.2,51.7
			C74.2,51.7,74.2,51.8,74.2,51.7c0,0.1-0.1,0.1-0.1,0.1c0,0-0.1,0-0.1,0c-0.1,0-0.1,0-0.2,0c-0.1,0-0.2,0-0.2,0c-0.1,0-0.1,0-0.1,0
			c0,0-0.1,0-0.1-0.1c0,0,0-0.1,0-0.1v-6.8c0,0,0-0.1,0-0.1c0,0,0,0,0.1-0.1c0,0,0.1,0,0.1,0s0.1,0,0.2,0c0.1,0,0.2,0,0.2,0
			c0.1,0,0.1,0,0.1,0c0,0,0.1,0,0.1,0.1c0,0,0,0.1,0,0.1V51.7z"/>
		<path class="st1" d="M80.7,49.9c0,0.3-0.1,0.6-0.2,0.9c-0.1,0.3-0.3,0.5-0.5,0.7c-0.2,0.2-0.5,0.3-0.8,0.4c-0.3,0.1-0.7,0.1-1,0.1
			c-0.2,0-0.5,0-0.7-0.1s-0.4-0.1-0.6-0.1s-0.3-0.1-0.4-0.2c-0.1-0.1-0.2-0.1-0.3-0.2c-0.1,0-0.1-0.1-0.1-0.2c0-0.1,0-0.2,0-0.3
			c0-0.1,0-0.1,0-0.2c0,0,0-0.1,0-0.1c0,0,0-0.1,0.1-0.1s0.1,0,0.1,0c0.1,0,0.1,0,0.2,0.1c0.1,0.1,0.2,0.1,0.4,0.2
			c0.2,0.1,0.3,0.2,0.6,0.2c0.2,0.1,0.5,0.1,0.8,0.1c0.2,0,0.4,0,0.6-0.1c0.2,0,0.4-0.1,0.5-0.2c0.1-0.1,0.2-0.2,0.3-0.4
			c0.1-0.2,0.1-0.3,0.1-0.6c0-0.2-0.1-0.4-0.1-0.5c-0.1-0.1-0.2-0.3-0.4-0.4c-0.2-0.1-0.3-0.2-0.6-0.3c-0.2-0.1-0.4-0.2-0.6-0.3
			c-0.2-0.1-0.4-0.2-0.6-0.3c-0.2-0.1-0.4-0.2-0.6-0.4c-0.2-0.2-0.3-0.3-0.4-0.5c-0.1-0.2-0.1-0.5-0.1-0.8c0-0.2,0-0.5,0.1-0.7
			c0.1-0.2,0.2-0.4,0.4-0.6s0.4-0.3,0.7-0.4c0.3-0.1,0.6-0.2,1-0.2c0.2,0,0.3,0,0.5,0c0.2,0,0.3,0.1,0.5,0.1c0.1,0,0.3,0.1,0.4,0.1
			c0.1,0.1,0.2,0.1,0.2,0.1c0.1,0,0.1,0.1,0.1,0.1s0,0.1,0,0.1c0,0,0,0.1,0,0.1c0,0,0,0.1,0,0.2s0,0.1,0,0.2s0,0.1,0,0.1
			s0,0.1-0.1,0.1s0,0-0.1,0c0,0-0.1,0-0.2-0.1c-0.1-0.1-0.2-0.1-0.3-0.2c-0.1-0.1-0.3-0.1-0.5-0.2c-0.2-0.1-0.4-0.1-0.6-0.1
			s-0.4,0-0.6,0.1c-0.2,0.1-0.3,0.1-0.4,0.2c-0.1,0.1-0.2,0.2-0.3,0.4c-0.1,0.1-0.1,0.3-0.1,0.4c0,0.2,0,0.4,0.1,0.6
			s0.2,0.3,0.4,0.4c0.2,0.1,0.4,0.2,0.6,0.3s0.4,0.2,0.6,0.3s0.4,0.2,0.6,0.3c0.2,0.1,0.4,0.2,0.6,0.4c0.2,0.1,0.3,0.3,0.4,0.5
			C80.7,49.4,80.7,49.6,80.7,49.9z"/>
		<path class="st1" d="M83.7,42.6c0,0.2,0,0.4-0.1,0.5s-0.2,0.1-0.5,0.1c-0.2,0-0.4,0-0.5-0.1c-0.1-0.1-0.1-0.2-0.1-0.5
			c0-0.2,0-0.4,0.1-0.5s0.2-0.1,0.5-0.1c0.2,0,0.4,0,0.5,0.1C83.6,42.2,83.7,42.4,83.7,42.6z M83.5,51.7
			C83.5,51.7,83.5,51.8,83.5,51.7c0,0.1-0.1,0.1-0.1,0.1c0,0-0.1,0-0.1,0c-0.1,0-0.1,0-0.2,0c-0.1,0-0.2,0-0.2,0c-0.1,0-0.1,0-0.1,0
			c0,0-0.1,0-0.1-0.1c0,0,0-0.1,0-0.1v-6.8c0,0,0-0.1,0-0.1c0,0,0,0,0.1-0.1c0,0,0.1,0,0.1,0s0.1,0,0.2,0c0.1,0,0.2,0,0.2,0
			c0.1,0,0.1,0,0.1,0c0,0,0.1,0,0.1,0.1c0,0,0,0.1,0,0.1V51.7z"/>
		<path class="st1" d="M92,48.2c0,0.5-0.1,1-0.2,1.5c-0.1,0.5-0.3,0.8-0.6,1.2c-0.3,0.3-0.6,0.6-1,0.8c-0.4,0.2-0.9,0.3-1.4,0.3
			c-0.5,0-1-0.1-1.4-0.3c-0.4-0.2-0.7-0.4-1-0.7c-0.3-0.3-0.5-0.7-0.6-1.1c-0.1-0.4-0.2-0.9-0.2-1.5c0-0.5,0.1-1,0.2-1.5
			c0.1-0.5,0.3-0.8,0.6-1.2c0.3-0.3,0.6-0.6,1-0.8c0.4-0.2,0.9-0.3,1.5-0.3c0.5,0,1,0.1,1.4,0.2c0.4,0.2,0.7,0.4,1,0.7
			c0.3,0.3,0.5,0.7,0.6,1.1C92,47.2,92,47.7,92,48.2z M91.1,48.3c0-0.4,0-0.8-0.1-1.1c-0.1-0.3-0.2-0.7-0.4-0.9
			c-0.2-0.3-0.4-0.5-0.7-0.6c-0.3-0.2-0.7-0.2-1.1-0.2c-0.4,0-0.8,0.1-1,0.2c-0.3,0.1-0.5,0.3-0.7,0.6c-0.2,0.3-0.3,0.6-0.4,0.9
			s-0.1,0.7-0.1,1.1c0,0.4,0,0.8,0.1,1.1c0.1,0.4,0.2,0.7,0.4,0.9c0.2,0.3,0.4,0.5,0.7,0.6c0.3,0.2,0.7,0.2,1.1,0.2
			c0.4,0,0.8-0.1,1-0.2c0.3-0.1,0.5-0.3,0.7-0.6s0.3-0.6,0.4-0.9S91.1,48.7,91.1,48.3z"/>
		<path class="st1" d="M97.3,51.3c0,0.1,0,0.2,0,0.3s0,0.1-0.1,0.2c0,0-0.1,0.1-0.2,0.1c-0.1,0-0.2,0.1-0.3,0.1
			c-0.1,0-0.2,0-0.3,0.1s-0.2,0-0.3,0c-0.3,0-0.6,0-0.9-0.1s-0.4-0.2-0.6-0.4c-0.1-0.2-0.3-0.4-0.3-0.7c-0.1-0.3-0.1-0.6-0.1-1v-4.2
			h-1c-0.1,0-0.1,0-0.2-0.1c0-0.1-0.1-0.2-0.1-0.3c0-0.1,0-0.1,0-0.2c0,0,0-0.1,0-0.1c0,0,0-0.1,0.1-0.1c0,0,0.1,0,0.1,0h1v-1.7
			c0,0,0-0.1,0-0.1c0,0,0,0,0.1-0.1c0,0,0.1,0,0.1,0c0.1,0,0.1,0,0.2,0c0.1,0,0.2,0,0.2,0c0.1,0,0.1,0,0.1,0s0.1,0,0.1,0.1
			c0,0,0,0.1,0,0.1v1.7h1.9c0,0,0.1,0,0.1,0s0.1,0,0.1,0.1s0,0.1,0,0.1c0,0,0,0.1,0,0.2c0,0.1,0,0.2-0.1,0.3s-0.1,0.1-0.2,0.1h-1.9
			v4.1c0,0.5,0.1,0.9,0.2,1.2c0.1,0.3,0.4,0.4,0.8,0.4c0.1,0,0.2,0,0.3,0c0.1,0,0.2-0.1,0.3-0.1c0.1,0,0.1-0.1,0.2-0.1
			c0.1,0,0.1,0,0.1,0c0,0,0,0,0.1,0c0,0,0,0,0,0.1c0,0,0,0.1,0,0.1C97.3,51.2,97.3,51.2,97.3,51.3z"/>
		<path class="st1" d="M104.5,48c0,0.2,0,0.3-0.1,0.4c-0.1,0.1-0.2,0.1-0.3,0.1h-4.6c0,0.4,0,0.8,0.1,1.1s0.2,0.6,0.4,0.9
			c0.2,0.2,0.4,0.4,0.7,0.6s0.7,0.2,1.1,0.2c0.3,0,0.6,0,0.8-0.1c0.3-0.1,0.5-0.1,0.6-0.2c0.2-0.1,0.3-0.1,0.5-0.2
			c0.1-0.1,0.2-0.1,0.3-0.1c0,0,0.1,0,0.1,0s0,0,0.1,0.1c0,0,0,0.1,0,0.1s0,0.1,0,0.2c0,0,0,0.1,0,0.1c0,0,0,0.1,0,0.1
			c0,0,0,0.1,0,0.1c0,0,0,0-0.1,0.1c0,0-0.1,0.1-0.2,0.1s-0.3,0.1-0.5,0.2s-0.5,0.1-0.7,0.2S102,52,101.7,52c-0.5,0-1-0.1-1.4-0.2
			c-0.4-0.2-0.7-0.4-1-0.7s-0.5-0.7-0.6-1.1c-0.1-0.5-0.2-1-0.2-1.6c0-0.6,0.1-1.1,0.2-1.5c0.1-0.5,0.4-0.8,0.6-1.2s0.6-0.6,1-0.7
			c0.4-0.2,0.8-0.3,1.3-0.3c0.5,0,0.9,0.1,1.3,0.3c0.4,0.2,0.7,0.4,0.9,0.7c0.2,0.3,0.4,0.6,0.5,1s0.2,0.8,0.2,1.2V48z M103.5,47.7
			c0-0.7-0.2-1.3-0.5-1.7c-0.3-0.4-0.8-0.6-1.5-0.6c-0.3,0-0.6,0.1-0.9,0.2c-0.3,0.1-0.5,0.3-0.7,0.5c-0.2,0.2-0.3,0.5-0.4,0.7
			c-0.1,0.3-0.1,0.6-0.2,0.9H103.5z"/>
		<path class="st1" d="M110.3,45.3c0,0.1,0,0.1,0,0.2s0,0.1,0,0.1c0,0,0,0.1,0,0.1s0,0-0.1,0c0,0-0.1,0-0.2,0c-0.1,0-0.1,0-0.2-0.1
			c-0.1,0-0.2,0-0.3-0.1s-0.2,0-0.3,0c-0.1,0-0.3,0-0.4,0.1c-0.1,0.1-0.3,0.1-0.4,0.3c-0.1,0.1-0.3,0.3-0.5,0.5s-0.3,0.5-0.5,0.8
			v4.6c0,0,0,0.1,0,0.1c0,0,0,0-0.1,0.1c0,0-0.1,0-0.1,0c-0.1,0-0.1,0-0.2,0c-0.1,0-0.2,0-0.2,0c-0.1,0-0.1,0-0.1,0
			c0,0-0.1,0-0.1-0.1s0-0.1,0-0.1v-6.8c0,0,0-0.1,0-0.1c0,0,0,0,0.1-0.1c0,0,0.1,0,0.1,0c0.1,0,0.1,0,0.2,0c0.1,0,0.2,0,0.2,0
			c0.1,0,0.1,0,0.1,0c0,0,0.1,0,0.1,0.1c0,0,0,0.1,0,0.1V46c0.2-0.3,0.4-0.5,0.5-0.7s0.3-0.3,0.5-0.4c0.1-0.1,0.3-0.2,0.4-0.2
			s0.3-0.1,0.4-0.1c0.1,0,0.1,0,0.2,0c0.1,0,0.2,0,0.3,0c0.1,0,0.2,0,0.3,0.1s0.1,0.1,0.2,0.1s0,0,0.1,0.1c0,0,0,0,0,0.1
			c0,0,0,0.1,0,0.1C110.3,45.1,110.3,45.2,110.3,45.3z"/>
		<path class="st1" d="M116.3,51.7c0,0.1,0,0.1,0,0.1c0,0-0.1,0-0.1,0.1c-0.1,0-0.1,0-0.2,0c-0.1,0-0.2,0-0.2,0
			c-0.1,0-0.1,0-0.1-0.1c0,0,0-0.1,0-0.1V51c-0.3,0.3-0.6,0.6-1,0.8s-0.7,0.3-1.1,0.3c-0.4,0-0.7,0-1-0.1c-0.3-0.1-0.5-0.2-0.7-0.4
			c-0.2-0.2-0.3-0.4-0.4-0.6c-0.1-0.2-0.2-0.5-0.2-0.8c0-0.4,0.1-0.7,0.2-1c0.2-0.3,0.4-0.5,0.7-0.7c0.3-0.2,0.6-0.3,1-0.4
			c0.4-0.1,0.8-0.1,1.3-0.1h1.1v-0.6c0-0.3,0-0.5-0.1-0.8c-0.1-0.2-0.2-0.4-0.3-0.6c-0.1-0.2-0.3-0.3-0.5-0.3
			c-0.2-0.1-0.5-0.1-0.8-0.1c-0.3,0-0.6,0-0.8,0.1c-0.2,0.1-0.4,0.2-0.6,0.2c-0.2,0.1-0.3,0.2-0.4,0.2c-0.1,0.1-0.2,0.1-0.3,0.1
			c0,0-0.1,0-0.1,0c0,0,0,0-0.1-0.1s0-0.1,0-0.1c0,0,0-0.1,0-0.2c0-0.1,0-0.2,0-0.3s0.1-0.1,0.1-0.2s0.2-0.1,0.3-0.2
			c0.2-0.1,0.3-0.2,0.6-0.2c0.2-0.1,0.4-0.1,0.7-0.2s0.5-0.1,0.7-0.1c0.5,0,0.9,0.1,1.2,0.2c0.3,0.1,0.6,0.3,0.8,0.5
			c0.2,0.2,0.3,0.5,0.4,0.8c0.1,0.3,0.1,0.7,0.1,1V51.7z M115.4,48.5h-1.2c-0.4,0-0.7,0-0.9,0.1c-0.3,0.1-0.5,0.2-0.7,0.3
			c-0.2,0.1-0.3,0.3-0.4,0.5c-0.1,0.2-0.1,0.4-0.1,0.6c0,0.4,0.1,0.7,0.4,0.9c0.2,0.2,0.6,0.3,1,0.3c0.4,0,0.7-0.1,1-0.3
			c0.3-0.2,0.6-0.5,1-0.8V48.5z"/>
		<path class="st1" d="M124.7,48.2c0,0.6-0.1,1.1-0.2,1.6c-0.1,0.5-0.3,0.9-0.6,1.2c-0.2,0.3-0.6,0.6-0.9,0.8
			c-0.4,0.2-0.8,0.3-1.3,0.3c-0.2,0-0.4,0-0.6-0.1c-0.2,0-0.3-0.1-0.5-0.2s-0.3-0.2-0.5-0.3c-0.2-0.1-0.3-0.3-0.5-0.5v3.5
			c0,0,0,0.1,0,0.1c0,0,0,0-0.1,0.1c0,0-0.1,0-0.1,0c-0.1,0-0.1,0-0.2,0c-0.1,0-0.2,0-0.2,0c-0.1,0-0.1,0-0.1,0s-0.1,0-0.1-0.1
			c0,0,0-0.1,0-0.1v-9.5c0,0,0-0.1,0-0.1s0,0,0.1-0.1c0,0,0.1,0,0.1,0s0.1,0,0.2,0c0.1,0,0.1,0,0.2,0c0.1,0,0.1,0,0.1,0
			c0,0,0.1,0,0.1,0.1c0,0,0,0.1,0,0.1v1c0.2-0.2,0.4-0.4,0.6-0.6c0.2-0.2,0.4-0.3,0.6-0.4c0.2-0.1,0.4-0.2,0.6-0.2s0.4-0.1,0.6-0.1
			c0.5,0,0.9,0.1,1.3,0.3c0.3,0.2,0.6,0.4,0.8,0.8c0.2,0.3,0.4,0.7,0.5,1.1S124.7,47.7,124.7,48.2z M123.7,48.4c0-0.4,0-0.7-0.1-1.1
			c-0.1-0.4-0.2-0.7-0.3-0.9c-0.1-0.3-0.3-0.5-0.6-0.7c-0.2-0.2-0.5-0.2-0.9-0.2c-0.2,0-0.4,0-0.5,0.1c-0.2,0-0.3,0.1-0.5,0.2
			c-0.2,0.1-0.4,0.3-0.6,0.4s-0.4,0.4-0.6,0.7v3c0.4,0.5,0.7,0.8,1.1,1s0.7,0.4,1.1,0.4c0.3,0,0.6-0.1,0.9-0.3
			c0.2-0.2,0.4-0.4,0.6-0.7c0.2-0.3,0.3-0.6,0.3-0.9C123.7,49,123.7,48.7,123.7,48.4z"/>
		<path class="st1" d="M127.7,42.6c0,0.2,0,0.4-0.1,0.5s-0.2,0.1-0.5,0.1c-0.2,0-0.4,0-0.5-0.1c-0.1-0.1-0.1-0.2-0.1-0.5
			c0-0.2,0-0.4,0.1-0.5s0.2-0.1,0.5-0.1c0.2,0,0.4,0,0.5,0.1C127.7,42.2,127.7,42.4,127.7,42.6z M127.6,51.7
			C127.6,51.7,127.6,51.8,127.6,51.7c0,0.1-0.1,0.1-0.1,0.1c0,0-0.1,0-0.1,0c-0.1,0-0.1,0-0.2,0c-0.1,0-0.2,0-0.2,0
			c-0.1,0-0.1,0-0.1,0c0,0-0.1,0-0.1-0.1s0-0.1,0-0.1v-6.8c0,0,0-0.1,0-0.1c0,0,0,0,0.1-0.1c0,0,0.1,0,0.1,0s0.1,0,0.2,0
			c0.1,0,0.2,0,0.2,0s0.1,0,0.1,0c0,0,0.1,0,0.1,0.1c0,0,0,0.1,0,0.1V51.7z"/>
		<path class="st1" d="M134.9,51.7c0,0.1,0,0.1,0,0.1c0,0-0.1,0-0.1,0.1c-0.1,0-0.1,0-0.2,0c-0.1,0-0.2,0-0.2,0
			c-0.1,0-0.1,0-0.1-0.1c0,0,0-0.1,0-0.1V51c-0.3,0.3-0.6,0.6-1,0.8s-0.7,0.3-1.1,0.3c-0.4,0-0.7,0-1-0.1c-0.3-0.1-0.5-0.2-0.7-0.4
			c-0.2-0.2-0.3-0.4-0.4-0.6c-0.1-0.2-0.2-0.5-0.2-0.8c0-0.4,0.1-0.7,0.2-1c0.2-0.3,0.4-0.5,0.7-0.7c0.3-0.2,0.6-0.3,1-0.4
			c0.4-0.1,0.8-0.1,1.3-0.1h1.1v-0.6c0-0.3,0-0.5-0.1-0.8c-0.1-0.2-0.2-0.4-0.3-0.6c-0.1-0.2-0.3-0.3-0.5-0.3
			c-0.2-0.1-0.5-0.1-0.8-0.1c-0.3,0-0.6,0-0.8,0.1c-0.2,0.1-0.4,0.2-0.6,0.2c-0.2,0.1-0.3,0.2-0.4,0.2c-0.1,0.1-0.2,0.1-0.3,0.1
			c0,0-0.1,0-0.1,0c0,0,0,0-0.1-0.1s0-0.1,0-0.1c0,0,0-0.1,0-0.2c0-0.1,0-0.2,0-0.3s0.1-0.1,0.1-0.2s0.2-0.1,0.3-0.2
			c0.2-0.1,0.3-0.2,0.6-0.2c0.2-0.1,0.4-0.1,0.7-0.2s0.5-0.1,0.7-0.1c0.5,0,0.9,0.1,1.2,0.2c0.3,0.1,0.6,0.3,0.8,0.5
			c0.2,0.2,0.3,0.5,0.4,0.8c0.1,0.3,0.1,0.7,0.1,1V51.7z M134,48.5h-1.2c-0.4,0-0.7,0-0.9,0.1c-0.3,0.1-0.5,0.2-0.7,0.3
			c-0.2,0.1-0.3,0.3-0.4,0.5c-0.1,0.2-0.1,0.4-0.1,0.6c0,0.4,0.1,0.7,0.4,0.9c0.2,0.2,0.6,0.3,1,0.3c0.4,0,0.7-0.1,1-0.3
			c0.3-0.2,0.6-0.5,1-0.8V48.5z"/>
		<path class="st1" d="M146.2,51.5c0,0.1,0,0.1,0,0.2s0,0.1,0,0.1c0,0,0,0.1-0.1,0.1c0,0-0.1,0-0.1,0h-4.5c-0.1,0-0.2,0-0.3-0.1
			c-0.1-0.1-0.1-0.2-0.1-0.4v-8.8c0-0.2,0-0.3,0.1-0.4c0.1-0.1,0.2-0.1,0.3-0.1h4.5c0,0,0.1,0,0.1,0c0,0,0.1,0,0.1,0.1
			c0,0,0,0.1,0,0.1c0,0.1,0,0.1,0,0.2c0,0.1,0,0.1,0,0.2s0,0.1,0,0.1c0,0,0,0.1-0.1,0.1c0,0-0.1,0-0.1,0h-4v3.4h3.4c0,0,0.1,0,0.1,0
			c0,0,0.1,0,0.1,0.1c0,0,0,0.1,0,0.1c0,0.1,0,0.1,0,0.2c0,0.1,0,0.1,0,0.2c0,0,0,0.1,0,0.1c0,0,0,0.1-0.1,0.1c0,0-0.1,0-0.1,0h-3.4
			V51h4c0,0,0.1,0,0.1,0c0,0,0.1,0,0.1,0.1s0,0.1,0,0.1C146.2,51.3,146.2,51.4,146.2,51.5z"/>
		<path class="st1" d="M152.3,49.9c0,0.3-0.1,0.6-0.2,0.9c-0.1,0.3-0.3,0.5-0.5,0.7c-0.2,0.2-0.5,0.3-0.8,0.4
			c-0.3,0.1-0.7,0.1-1,0.1c-0.2,0-0.5,0-0.7-0.1s-0.4-0.1-0.6-0.1s-0.3-0.1-0.4-0.2c-0.1-0.1-0.2-0.1-0.3-0.2
			c-0.1,0-0.1-0.1-0.1-0.2c0-0.1,0-0.2,0-0.3c0-0.1,0-0.1,0-0.2s0-0.1,0-0.1c0,0,0-0.1,0.1-0.1c0,0,0.1,0,0.1,0c0.1,0,0.1,0,0.2,0.1
			c0.1,0.1,0.2,0.1,0.4,0.2c0.2,0.1,0.3,0.2,0.6,0.2c0.2,0.1,0.5,0.1,0.8,0.1c0.2,0,0.4,0,0.6-0.1c0.2,0,0.4-0.1,0.5-0.2
			c0.1-0.1,0.2-0.2,0.3-0.4c0.1-0.2,0.1-0.3,0.1-0.6c0-0.2,0-0.4-0.1-0.5c-0.1-0.1-0.2-0.3-0.4-0.4c-0.2-0.1-0.3-0.2-0.6-0.3
			c-0.2-0.1-0.4-0.2-0.6-0.3c-0.2-0.1-0.4-0.2-0.6-0.3c-0.2-0.1-0.4-0.2-0.6-0.4c-0.2-0.2-0.3-0.3-0.4-0.5c-0.1-0.2-0.2-0.5-0.2-0.8
			c0-0.2,0-0.5,0.1-0.7s0.2-0.4,0.4-0.6s0.4-0.3,0.7-0.4c0.3-0.1,0.6-0.2,1-0.2c0.2,0,0.3,0,0.5,0c0.2,0,0.3,0.1,0.5,0.1
			s0.3,0.1,0.4,0.1c0.1,0.1,0.2,0.1,0.2,0.1c0.1,0,0.1,0.1,0.1,0.1s0,0.1,0,0.1c0,0,0,0.1,0,0.1c0,0,0,0.1,0,0.2s0,0.1,0,0.2
			s0,0.1,0,0.1c0,0,0,0.1-0.1,0.1s0,0-0.1,0c0,0-0.1,0-0.2-0.1c-0.1-0.1-0.2-0.1-0.3-0.2c-0.1-0.1-0.3-0.1-0.5-0.2
			c-0.2-0.1-0.4-0.1-0.6-0.1c-0.2,0-0.4,0-0.6,0.1c-0.2,0.1-0.3,0.1-0.4,0.2c-0.1,0.1-0.2,0.2-0.3,0.4s-0.1,0.3-0.1,0.4
			c0,0.2,0,0.4,0.1,0.6c0.1,0.2,0.2,0.3,0.4,0.4c0.2,0.1,0.4,0.2,0.6,0.3s0.4,0.2,0.6,0.3c0.2,0.1,0.4,0.2,0.6,0.3
			c0.2,0.1,0.4,0.2,0.6,0.4c0.2,0.1,0.3,0.3,0.4,0.5C152.3,49.4,152.3,49.6,152.3,49.9z"/>
		<path class="st1" d="M157.3,51.3c0,0.1,0,0.2,0,0.3s0,0.1-0.1,0.2c0,0-0.1,0.1-0.2,0.1s-0.2,0.1-0.3,0.1c-0.1,0-0.2,0-0.3,0.1
			c-0.1,0-0.2,0-0.3,0c-0.3,0-0.6,0-0.9-0.1c-0.2-0.1-0.4-0.2-0.6-0.4c-0.2-0.2-0.3-0.4-0.3-0.7c-0.1-0.3-0.1-0.6-0.1-1v-4.2h-1
			c-0.1,0-0.1,0-0.2-0.1s-0.1-0.2-0.1-0.3c0-0.1,0-0.1,0-0.2c0,0,0-0.1,0-0.1c0,0,0-0.1,0.1-0.1s0.1,0,0.1,0h1v-1.7c0,0,0-0.1,0-0.1
			c0,0,0,0,0.1-0.1s0.1,0,0.1,0c0.1,0,0.1,0,0.2,0c0.1,0,0.2,0,0.2,0c0.1,0,0.1,0,0.1,0c0,0,0.1,0,0.1,0.1c0,0,0,0.1,0,0.1v1.7h1.9
			c0,0,0.1,0,0.1,0c0,0,0.1,0,0.1,0.1c0,0,0,0.1,0,0.1c0,0,0,0.1,0,0.2c0,0.1,0,0.2-0.1,0.3c0,0.1-0.1,0.1-0.2,0.1h-1.9v4.1
			c0,0.5,0.1,0.9,0.2,1.2c0.1,0.3,0.4,0.4,0.8,0.4c0.1,0,0.2,0,0.3,0c0.1,0,0.2-0.1,0.3-0.1c0.1,0,0.1-0.1,0.2-0.1
			c0.1,0,0.1,0,0.1,0c0,0,0,0,0.1,0c0,0,0,0,0,0.1c0,0,0,0.1,0,0.1C157.3,51.2,157.3,51.2,157.3,51.3z"/>
		<path class="st1" d="M164.5,48c0,0.2,0,0.3-0.1,0.4c-0.1,0.1-0.2,0.1-0.3,0.1h-4.6c0,0.4,0,0.8,0.1,1.1c0.1,0.3,0.2,0.6,0.4,0.9
			c0.2,0.2,0.4,0.4,0.7,0.6s0.7,0.2,1.1,0.2c0.3,0,0.6,0,0.8-0.1c0.3-0.1,0.5-0.1,0.6-0.2s0.3-0.1,0.5-0.2c0.1-0.1,0.2-0.1,0.3-0.1
			c0,0,0.1,0,0.1,0s0,0,0.1,0.1c0,0,0,0.1,0,0.1s0,0.1,0,0.2c0,0,0,0.1,0,0.1c0,0,0,0.1,0,0.1c0,0,0,0.1,0,0.1c0,0,0,0-0.1,0.1
			c0,0-0.1,0.1-0.2,0.1s-0.3,0.1-0.5,0.2s-0.5,0.1-0.7,0.2s-0.6,0.1-0.9,0.1c-0.5,0-1-0.1-1.4-0.2c-0.4-0.2-0.7-0.4-1-0.7
			c-0.3-0.3-0.5-0.7-0.6-1.1s-0.2-1-0.2-1.6c0-0.6,0.1-1.1,0.2-1.5s0.4-0.8,0.6-1.2c0.3-0.3,0.6-0.6,1-0.7c0.4-0.2,0.8-0.3,1.3-0.3
			c0.5,0,0.9,0.1,1.3,0.3c0.4,0.2,0.7,0.4,0.9,0.7c0.2,0.3,0.4,0.6,0.5,1s0.2,0.8,0.2,1.2V48z M163.6,47.7c0-0.7-0.1-1.3-0.5-1.7
			c-0.3-0.4-0.8-0.6-1.5-0.6c-0.3,0-0.6,0.1-0.9,0.2c-0.3,0.1-0.5,0.3-0.7,0.5c-0.2,0.2-0.3,0.5-0.4,0.7c-0.1,0.3-0.2,0.6-0.2,0.9
			H163.6z M162.3,41.6c0,0,0.1-0.1,0.1-0.1c0,0,0.1-0.1,0.1-0.1c0,0,0.1,0,0.2,0c0.1,0,0.1,0,0.2,0s0.2,0,0.2,0c0.1,0,0.1,0,0.1,0.1
			c0,0,0,0.1,0,0.1c0,0,0,0.1-0.1,0.1l-1.3,1.8c0,0-0.1,0.1-0.1,0.1s-0.1,0-0.1,0.1s-0.1,0-0.1,0s-0.1,0-0.2,0s-0.1,0-0.2,0
			c0,0-0.1,0-0.1-0.1s0-0.1,0-0.1c0,0,0-0.1,0.1-0.1L162.3,41.6z"/>
		<path class="st1" d="M172,44.8c0.1,0,0.2,0,0.2,0.1s0.1,0.1,0.1,0.2v6.6c0,0,0,0.1,0,0.1c0,0,0,0-0.1,0.1c0,0-0.1,0-0.1,0
			c-0.1,0-0.1,0-0.2,0c-0.1,0-0.2,0-0.2,0c-0.1,0-0.1,0-0.1,0c0,0-0.1,0-0.1-0.1s0-0.1,0-0.1v-6.2h-3.7v4.1c0,0.5,0.1,0.9,0.2,1.2
			c0.1,0.3,0.4,0.4,0.8,0.4c0.1,0,0.2,0,0.3,0c0.1,0,0.2-0.1,0.3-0.1c0.1,0,0.1-0.1,0.2-0.1c0.1,0,0.1,0,0.1,0c0,0,0,0,0.1,0
			c0,0,0,0,0,0.1c0,0,0,0.1,0,0.1c0,0,0,0.1,0,0.2c0,0.1,0,0.2,0,0.3s0,0.1-0.1,0.2c0,0-0.1,0.1-0.2,0.1s-0.2,0.1-0.3,0.1
			c-0.1,0-0.2,0-0.3,0.1c-0.1,0-0.2,0-0.3,0c-0.3,0-0.6,0-0.9-0.1c-0.2-0.1-0.4-0.2-0.6-0.4c-0.2-0.2-0.3-0.4-0.3-0.7
			c-0.1-0.3-0.1-0.6-0.1-1v-4.2h-1c-0.1,0-0.1,0-0.2-0.1s-0.1-0.2-0.1-0.3c0-0.1,0-0.1,0-0.2c0,0,0-0.1,0-0.1c0,0,0-0.1,0.1-0.1
			s0.1,0,0.1,0h1v-1.7c0,0,0-0.1,0-0.1c0,0,0,0,0.1-0.1s0.1,0,0.1,0c0.1,0,0.1,0,0.2,0c0.1,0,0.2,0,0.2,0c0.1,0,0.1,0,0.1,0
			c0,0,0.1,0,0.1,0.1c0,0,0,0.1,0,0.1v1.7H172z M172.4,42.6c0,0.2,0,0.4-0.1,0.5s-0.2,0.1-0.5,0.1c-0.2,0-0.4,0-0.5-0.1
			c-0.1-0.1-0.1-0.2-0.1-0.5c0-0.2,0-0.4,0.1-0.5s0.2-0.1,0.5-0.1c0.2,0,0.4,0,0.5,0.1C172.4,42.2,172.4,42.4,172.4,42.6z"/>
		<path class="st1" d="M179.5,50.7c0,0.1,0,0.1,0,0.2s0,0.1,0,0.1c0,0,0,0.1,0,0.1c0,0-0.1,0.1-0.1,0.1c-0.1,0.1-0.2,0.1-0.3,0.2
			s-0.3,0.2-0.5,0.3c-0.2,0.1-0.4,0.1-0.6,0.2c-0.2,0-0.4,0.1-0.7,0.1c-0.5,0-0.9-0.1-1.2-0.2c-0.4-0.2-0.7-0.4-0.9-0.7
			c-0.2-0.3-0.4-0.7-0.6-1.1c-0.1-0.4-0.2-1-0.2-1.5c0-0.7,0.1-1.2,0.2-1.7c0.2-0.5,0.4-0.9,0.6-1.2c0.3-0.3,0.6-0.5,1-0.7
			s0.8-0.2,1.2-0.2c0.2,0,0.4,0,0.6,0.1c0.2,0,0.4,0.1,0.6,0.2c0.2,0.1,0.3,0.2,0.5,0.2s0.2,0.2,0.3,0.2s0.1,0.1,0.1,0.1
			s0,0.1,0.1,0.1c0,0,0,0.1,0,0.1c0,0,0,0.1,0,0.2c0,0.1,0,0.2-0.1,0.3c0,0.1-0.1,0.1-0.1,0.1c-0.1,0-0.2,0-0.3-0.1
			s-0.2-0.2-0.4-0.3c-0.2-0.1-0.4-0.2-0.6-0.3s-0.5-0.1-0.8-0.1c-0.6,0-1.2,0.3-1.5,0.8s-0.5,1.2-0.5,2.2c0,0.5,0,0.9,0.1,1.2
			c0.1,0.4,0.2,0.7,0.4,0.9c0.2,0.2,0.4,0.4,0.6,0.5c0.3,0.1,0.5,0.2,0.9,0.2c0.3,0,0.6,0,0.8-0.1c0.2-0.1,0.4-0.2,0.6-0.3
			c0.2-0.1,0.3-0.2,0.4-0.3s0.2-0.1,0.3-0.1c0,0,0.1,0,0.1,0s0,0,0.1,0.1c0,0,0,0.1,0,0.1C179.5,50.6,179.5,50.6,179.5,50.7z"/>
		<path class="st1" d="M185.9,51.7c0,0.1,0,0.1,0,0.1c0,0-0.1,0-0.1,0.1c-0.1,0-0.1,0-0.2,0c-0.1,0-0.2,0-0.2,0
			c-0.1,0-0.1,0-0.1-0.1c0,0,0-0.1,0-0.1V51c-0.3,0.3-0.6,0.6-1,0.8S183.4,52,183,52c-0.4,0-0.7,0-1-0.1c-0.3-0.1-0.5-0.2-0.7-0.4
			c-0.2-0.2-0.3-0.4-0.4-0.6c-0.1-0.2-0.2-0.5-0.2-0.8c0-0.4,0.1-0.7,0.2-1c0.2-0.3,0.4-0.5,0.7-0.7c0.3-0.2,0.6-0.3,1-0.4
			c0.4-0.1,0.8-0.1,1.3-0.1h1.1v-0.6c0-0.3,0-0.5-0.1-0.8c-0.1-0.2-0.2-0.4-0.3-0.6c-0.1-0.2-0.3-0.3-0.5-0.3
			c-0.2-0.1-0.5-0.1-0.8-0.1c-0.3,0-0.6,0-0.8,0.1c-0.2,0.1-0.4,0.2-0.6,0.2c-0.2,0.1-0.3,0.2-0.4,0.2c-0.1,0.1-0.2,0.1-0.3,0.1
			c0,0-0.1,0-0.1,0c0,0,0,0-0.1-0.1s0-0.1,0-0.1c0,0,0-0.1,0-0.2c0-0.1,0-0.2,0-0.3s0.1-0.1,0.1-0.2s0.2-0.1,0.3-0.2
			c0.2-0.1,0.3-0.2,0.6-0.2c0.2-0.1,0.4-0.1,0.7-0.2s0.5-0.1,0.7-0.1c0.5,0,0.9,0.1,1.2,0.2c0.3,0.1,0.6,0.3,0.8,0.5
			c0.2,0.2,0.3,0.5,0.4,0.8c0.1,0.3,0.1,0.7,0.1,1V51.7z M185,48.5h-1.2c-0.4,0-0.7,0-0.9,0.1c-0.3,0.1-0.5,0.2-0.7,0.3
			c-0.2,0.1-0.3,0.3-0.4,0.5c-0.1,0.2-0.1,0.4-0.1,0.6c0,0.4,0.1,0.7,0.4,0.9c0.2,0.2,0.6,0.3,1,0.3c0.4,0,0.7-0.1,1-0.3
			c0.3-0.2,0.6-0.5,1-0.8V48.5z"/>
	</g>
	<g>
		<path class="st2" d="M53.5,35.1V14.8h10.7V17h-8.3v5.8h8.3V25h-8.3v10H53.5z"/>
		<path class="st2" d="M67.9,35.1V14.8h2.4v20.3H67.9z"/>
		<path class="st2" d="M82.7,23.8c1.3,0.6,2.3,1.3,3,2.3s1,2,1,3.3c0,1.9-0.6,3.4-1.8,4.5s-2.8,1.7-4.7,1.7c-1.6,0-2.9-0.4-4-1.2
			c-1.1-0.8-1.8-2-2.2-3.5l2.2-1.1c0.3,1.2,0.8,2.2,1.5,2.8c0.7,0.6,1.5,1,2.6,1c1.2,0,2.2-0.3,2.9-1c0.8-0.7,1.1-1.6,1.1-2.7
			c0-0.9-0.3-1.7-0.8-2.4c-0.5-0.7-1.3-1.2-2.4-1.7l-2.5-1.1c-1.4-0.6-2.4-1.3-3-2.2c-0.7-0.9-1-2-1-3.2c0-1.4,0.5-2.6,1.6-3.6
			c1.1-0.9,2.4-1.4,4.1-1.4c1.2,0,2.3,0.3,3.2,0.8c0.9,0.5,1.6,1.3,2.1,2.3l-2,1.3c-0.5-0.8-1-1.4-1.5-1.8c-0.6-0.4-1.2-0.6-1.9-0.6
			c-0.9,0-1.7,0.3-2.2,0.8c-0.6,0.6-0.9,1.3-0.9,2.1c0,0.7,0.2,1.3,0.7,1.9c0.4,0.5,1.1,1,2.1,1.4L82.7,23.8z"/>
		<path class="st2" d="M89.9,35.1V14.8h2.4v20.3H89.9z"/>
		<path class="st2" d="M118.1,25c0,1.5-0.3,2.8-0.8,4.1c-0.5,1.3-1.3,2.4-2.3,3.4c-1,1-2.2,1.8-3.6,2.3c-1.3,0.5-2.7,0.8-4.2,0.8
			c-1.4,0-2.8-0.3-4.1-0.8c-1.3-0.5-2.5-1.3-3.5-2.3c-1-1-1.8-2.2-2.4-3.4s-0.8-2.7-0.8-4.1c0-1.5,0.3-2.8,0.8-4.1s1.3-2.4,2.4-3.5
			c1-1,2.2-1.8,3.5-2.3s2.7-0.8,4.2-0.8c1.4,0,2.8,0.3,4.2,0.8c1.3,0.5,2.5,1.3,3.5,2.3c1,1,1.8,2.1,2.3,3.4
			C117.8,22.1,118.1,23.5,118.1,25z M107.2,33.4c1.1,0,2.2-0.2,3.2-0.6c1-0.4,1.9-1,2.7-1.8c0.8-0.8,1.4-1.7,1.8-2.7
			c0.4-1,0.6-2.1,0.6-3.2c0-1.1-0.2-2.2-0.6-3.3c-0.4-1-1-1.9-1.8-2.7c-0.8-0.8-1.7-1.4-2.7-1.8c-1-0.4-2.1-0.6-3.2-0.6
			c-1.1,0-2.2,0.2-3.2,0.6s-1.9,1-2.7,1.8c-0.8,0.8-1.4,1.7-1.8,2.7c-0.4,1-0.6,2.1-0.6,3.2c0,1.1,0.2,2.2,0.6,3.2
			c0.4,1,1,1.9,1.8,2.7c0.8,0.8,1.7,1.4,2.7,1.8S106.1,33.4,107.2,33.4z"/>
		<path class="st2" d="M129.4,23.8c1.3,0.6,2.3,1.3,3,2.3s1,2,1,3.3c0,1.9-0.6,3.4-1.8,4.5c-1.2,1.1-2.8,1.7-4.7,1.7
			c-1.6,0-2.9-0.4-4-1.2c-1.1-0.8-1.8-2-2.2-3.5l2.2-1.1c0.3,1.2,0.8,2.2,1.5,2.8c0.7,0.6,1.5,1,2.6,1c1.2,0,2.2-0.3,2.9-1
			c0.8-0.7,1.1-1.6,1.1-2.7c0-0.9-0.3-1.7-0.8-2.4c-0.5-0.7-1.3-1.2-2.4-1.7l-2.5-1.1c-1.4-0.6-2.4-1.3-3-2.2c-0.7-0.9-1-2-1-3.2
			c0-1.4,0.5-2.6,1.6-3.6c1.1-0.9,2.4-1.4,4.1-1.4c1.2,0,2.3,0.3,3.2,0.8s1.6,1.3,2.1,2.3l-2,1.3c-0.5-0.8-1-1.4-1.5-1.8
			c-0.6-0.4-1.2-0.6-1.9-0.6c-0.9,0-1.7,0.3-2.2,0.8c-0.6,0.6-0.9,1.3-0.9,2.1c0,0.7,0.2,1.3,0.7,1.9c0.4,0.5,1.1,1,2.1,1.4
			L129.4,23.8z"/>
		<path class="st2" d="M140.2,35.1v-18h-5.8v-2.3h13.9v2.3h-5.7v18H140.2z"/>
		<path class="st2" d="M151.1,35.1V14.8h10.7V17h-8.3v5.8h8.3V25h-8.3v7.8h8.3v2.3H151.1z"/>
		<path class="st2" d="M169.4,35.1v-18h-5.8v-2.3h13.9v2.3h-5.7v18H169.4z"/>
		<path class="st2" d="M180.3,35.1V14.8h2.4v20.3H180.3z"/>
		<path class="st2" d="M187.7,35.1V14.8h2.4v9l8.5-9h2.9l-8.7,9.2l9.6,11.2h-3.1l-9.2-10.9v10.9H187.7z"/>
	</g>
</g>
</svg>
