<?xml version="1.0" encoding="utf-8"?>
<!-- Generator: Adobe Illustrator 24.0.2, SVG Export Plug-In . SVG Version: 6.00 Build 0)  -->
<svg version="1.1" id="Capa_1" xmlns="http://www.w3.org/2000/svg" xmlns:xlink="http://www.w3.org/1999/xlink" x="0px" y="0px"
	 viewBox="0 0 512 512" style="enable-background:new 0 0 512 512;" xml:space="preserve">
<style type="text/css">
	.st0{fill:#B853FA;}
</style>
<g>
	<g>
		<path class="st0" d="M185.5,459.6c-1.9-1.9-4.4-2.9-7.1-2.9c-2.6,0-5.2,1.1-7.1,2.9c-1.9,1.9-2.9,4.4-2.9,7.1s1.1,5.2,2.9,7.1
			c1.9,1.9,4.4,2.9,7.1,2.9c2.6,0,5.2-1.1,7.1-2.9c1.9-1.9,2.9-4.4,2.9-7.1S187.3,461.5,185.5,459.6z"/>
	</g>
</g>
<g>
	<g>
		<path class="st0" d="M461.9,104.9L287.1,8.1c-19.5-10.8-42.7-10.8-62.2,0L50.1,104.9c-20.4,11.3-33,32.8-33,56.1v54.4
			c0,0,0,0,0,0.1V351c0,23.3,12.7,44.8,33,56.1l92.7,51.4c4.8,2.7,10.9,0.9,13.6-3.9c2.7-4.8,0.9-10.9-3.9-13.6l-13.6-7.5
			c0-0.3,0-0.6,0-0.9V289l85.2,47.2c6.9,3.8,14.3,6.3,21.8,7.5v147.1c-3.9-0.9-7.8-2.4-11.4-4.4l-22.2-12.3
			c-4.8-2.7-10.9-0.9-13.6,3.9c-2.7,4.8-0.9,10.9,3.9,13.6l22.2,12.3c9.7,5.4,20.4,8.1,31.1,8.1c10.7,0,21.3-2.7,31.1-8.1
			l174.8-96.9c20.4-11.3,33-32.8,33-56.1V215.5c0,0,0,0,0-0.1V161C494.9,137.7,482.3,116.2,461.9,104.9z M475,161v48.7l-81.9,45.4
			v-45.7c0-5.6-1.2-10.9-3.3-15.9l83-46C474.2,151.8,475,156.4,475,161z M391.4,88.8l60.8,33.7c3.9,2.1,7.3,4.8,10.3,7.9l-85.2,47.2
			c-1.5-1.2-3.1-2.2-4.9-3.2l-34.1-18.9c30-1,54.1-25.7,54.1-55.9C392.4,95.8,392.1,92.3,391.4,88.8z M350.1,66.2
			c10.8,4.4,22.4,15.5,22.4,33.3c0,19.8-16.1,36-36,36h-34.1l-0.1,0c0.7-2.3,1-4.8,1-7.4c0-12.7-5.1-24.2-13.3-32.6l20.8-21.2
			C323.2,61.6,339.2,61.8,350.1,66.2z M234.6,25.6c13.4-7.4,29.4-7.4,42.8,0l38.9,21.6c-7.2,2.8-14,7.2-19.8,13.2l-23.6,24
			c-5.1-1.9-10.6-3-16.3-3h-5.3c-4.6,0-9,0.7-13.2,1.9l-22.6-23c-5.8-5.9-12.6-10.3-19.8-13.2L234.6,25.6z M283.3,128.1
			c0,4.1-3.3,7.4-7.4,7.4h-44c-4.1,0-7.4-3.3-7.4-7.4c0-14.8,12-26.8,26.8-26.8h5.3C271.3,101.4,283.3,113.4,283.3,128.1z
			 M161.9,66.2c10.8-4.4,26.8-4.6,39.3,8.1L220,93.4c-9.5,8.6-15.5,21-15.5,34.7c0,2.6,0.4,5,1,7.4h-30c-19.8,0-36-16.1-36-36
			C139.6,81.7,151.1,70.6,161.9,66.2z M118.9,422.3l-59.2-32.8C45.8,381.8,37,367,37,351V232.6l81.9,45.4
			C118.9,277.9,118.9,422.3,118.9,422.3z M118.9,209.4v45.7L37,209.7V161c0-4.8,0.8-9.4,2.2-13.8l83.1,46
			C120.2,198.2,118.9,203.7,118.9,209.4z M135,177.3l-85.2-47.2c2.9-3,6.3-5.6,10.1-7.7l60.8-33.7c-0.7,3.5-1,7.1-1,10.8
			c0,30.2,24.1,54.9,54.1,55.9l-34.1,18.9C138,175.2,136.4,176.3,135,177.3z M246,323.4c-4.2-0.9-8.3-2.5-12.1-4.6l-94.9-52.6v-56.8
			c0-2.2,0.4-4.4,1.1-6.4l84.2,46.7c6.9,3.8,14.3,6.3,21.8,7.5L246,323.4L246,323.4z M233.9,232.2l-78.7-43.6l59.6-33h82.4
			l59.9,33.2l-78.4,43.4C264.7,239.9,247.9,239.9,233.9,232.2z M288.4,249.6l83.7-46.4c0.6,1.9,1,4,1,6.1v56.8l-94.9,52.6
			c-3.9,2.1-8,3.7-12.1,4.6v-66.1h0C273.7,256.1,281.3,253.6,288.4,249.6z M475,351c0,16-8.7,30.8-22.7,38.6l-59.2,32.8v-28
			c0-5.5-4.5-10-10-10s-10,4.5-10,10v38.2c0,0.3,0,0.6,0,0.9l-95.7,53c-3.6,2-7.5,3.5-11.4,4.4V343.7c7.5-1.2,14.9-3.7,21.8-7.5
			l85.2-47.2v30c0,5.5,4.5,10,10,10s10-4.5,10-10v-41.1l81.9-45.4L475,351L475,351z"/>
	</g>
</g>
<g>
	<g>
		<path class="st0" d="M390.1,351.5c-1.9-1.9-4.4-2.9-7.1-2.9s-5.2,1.1-7.1,2.9c-1.9,1.9-2.9,4.4-2.9,7.1s1.1,5.2,2.9,7.1
			c1.9,1.9,4.4,2.9,7.1,2.9s5.2-1.1,7.1-2.9c1.9-1.9,2.9-4.4,2.9-7.1S392,353.3,390.1,351.5z"/>
	</g>
</g>
</svg>
